<svg xmlns="http://www.w3.org/2000/svg" viewBox="0 0 500 500"><g id="freepik--background-complete--inject-23"><polygon points="37.62 382.59 37.44 339.83 37.37 297.08 37.25 211.58 37.37 126.08 37.44 83.33 37.62 40.58 37.8 83.33 37.87 126.08 37.99 211.58 37.87 297.08 37.8 339.83 37.62 382.59" style="fill:#ebebeb"></polygon><polygon points="70.3 382.59 70.11 339.83 70.05 297.08 69.92 211.58 70.05 126.08 70.11 83.33 70.3 40.58 70.48 83.33 70.54 126.08 70.67 211.58 70.54 297.08 70.48 339.83 70.3 382.59" style="fill:#ebebeb"></polygon><polygon points="102.97 382.59 102.79 339.83 102.72 297.08 102.59 211.58 102.72 126.08 102.78 83.33 102.97 40.58 103.15 83.33 103.22 126.08 103.34 211.58 103.22 297.08 103.15 339.83 102.97 382.59" style="fill:#ebebeb"></polygon><polygon points="135.64 382.59 135.46 339.83 135.39 297.08 135.27 211.58 135.39 126.08 135.46 83.33 135.64 40.58 135.83 83.33 135.89 126.08 136.02 211.58 135.89 297.08 135.82 339.83 135.64 382.59" style="fill:#ebebeb"></polygon><polygon points="168.32 382.59 168.13 339.83 168.07 297.08 167.94 211.58 168.07 126.08 168.13 83.33 168.32 40.58 168.5 83.33 168.56 126.08 168.69 211.58 168.56 297.08 168.5 339.83 168.32 382.59" style="fill:#ebebeb"></polygon><polygon points="200.99 382.59 200.81 339.83 200.74 297.08 200.62 211.58 200.74 126.08 200.81 83.33 200.99 40.58 201.17 83.33 201.24 126.08 201.36 211.58 201.24 297.08 201.17 339.83 200.99 382.59" style="fill:#ebebeb"></polygon><polygon points="233.66 382.59 233.48 339.83 233.41 297.08 233.29 211.58 233.41 126.08 233.48 83.33 233.66 40.58 233.85 83.33 233.91 126.08 234.04 211.58 233.91 297.08 233.85 339.83 233.66 382.59" style="fill:#ebebeb"></polygon><polygon points="266.34 382.59 266.15 339.83 266.09 297.08 265.96 211.58 266.09 126.08 266.15 83.33 266.34 40.58 266.52 83.33 266.59 126.08 266.71 211.58 266.58 297.08 266.52 339.83 266.34 382.59" style="fill:#ebebeb"></polygon><polygon points="299.01 382.59 298.83 339.83 298.76 297.08 298.64 211.58 298.76 126.08 298.83 83.33 299.01 40.58 299.19 83.33 299.26 126.08 299.38 211.58 299.26 297.08 299.19 339.83 299.01 382.59" style="fill:#ebebeb"></polygon><polygon points="331.68 382.59 331.5 339.83 331.44 297.08 331.31 211.58 331.44 126.08 331.5 83.33 331.68 40.58 331.87 83.33 331.93 126.08 332.06 211.58 331.93 297.08 331.87 339.83 331.68 382.59" style="fill:#ebebeb"></polygon><polygon points="364.36 382.59 364.18 339.83 364.11 297.08 363.98 211.58 364.11 126.08 364.17 83.33 364.36 40.58 364.54 83.33 364.61 126.08 364.73 211.58 364.61 297.08 364.54 339.83 364.36 382.59" style="fill:#ebebeb"></polygon><polygon points="397.03 382.59 396.85 339.83 396.78 297.08 396.66 211.58 396.78 126.08 396.85 83.33 397.03 40.58 397.21 83.33 397.28 126.08 397.41 211.58 397.28 297.08 397.21 339.83 397.03 382.59" style="fill:#ebebeb"></polygon><polygon points="429.7 382.59 429.52 339.83 429.46 297.08 429.33 211.58 429.46 126.08 429.52 83.33 429.7 40.58 429.89 83.33 429.95 126.08 430.08 211.58 429.95 297.08 429.89 339.83 429.7 382.59" style="fill:#ebebeb"></polygon><polygon points="462.38 382.59 462.2 339.83 462.13 297.08 462 211.58 462.13 126.08 462.19 83.33 462.38 40.58 462.56 83.33 462.63 126.08 462.75 211.58 462.63 297.08 462.56 339.83 462.38 382.59" style="fill:#ebebeb"></polygon><rect x="280.08" y="124.11" width="171.08" height="7.5" style="fill:#ebebeb"></rect><rect x="289.67" y="131.61" width="7.51" height="24.81" style="fill:#ebebeb"></rect><rect x="289.67" y="131.61" width="7.51" height="7.67" style="fill:#dbdbdb"></rect><rect x="434.07" y="131.61" width="7.51" height="24.81" style="fill:#ebebeb"></rect><rect x="434.07" y="131.61" width="7.51" height="7.67" style="fill:#dbdbdb"></rect><polygon points="433.18 105.56 432.1 108.4 431.45 110.13 430.37 112.98 426.17 124.12 403.43 124.12 399.22 112.98 398.14 110.13 397.49 108.4 396.41 105.56 404.8 93.33 400.45 85.28 429.16 85.28 424.79 93.33 433.18 105.56" style="fill:#dbdbdb"></polygon><polygon points="433.18 105.56 432.1 108.4 397.49 108.4 396.41 105.56 433.18 105.56" style="fill:#a6a6a6"></polygon><polygon points="431.45 110.13 430.37 112.98 399.22 112.98 398.14 110.13 431.45 110.13" style="fill:#a6a6a6"></polygon><rect x="306.03" y="92.34" width="1.01" height="5.5" style="fill:#a6a6a6"></rect><path d="M309.13,90.13c-.3,3.29-2.59,3.83-2.59,3.83s-2.29-.54-2.6-3.83,2.6-7.14,2.6-7.14S309.43,86.83,309.13,90.13Z" style="fill:#FF725E"></path><path d="M309.13,90.13c-.3,3.29-2.59,3.83-2.59,3.83s-2.29-.54-2.6-3.83,2.6-7.14,2.6-7.14S309.43,86.83,309.13,90.13Z" style="opacity:0.1"></path><path d="M308.33,91.32a1.93,1.93,0,1,1-3.58,0c-.21-2.28,1.79-4.93,1.79-4.93S308.53,89,308.33,91.32Z" style="fill:#FF725E"></path><polygon points="317.03 124.11 296.04 124.11 296.61 96.52 316.46 96.52 317.03 124.11" style="fill:#dbdbdb"></polygon><path d="M298.05,97.84a28.94,28.94,0,0,0,4.18.77,32.68,32.68,0,0,0,4.19.22,37,37,0,0,0,4.2-.29c1.4-.17,2.79-.44,4.21-.7-.65.31-1.31.6-2,.86a19,19,0,0,1-2.08.6,19.66,19.66,0,0,1-4.33.53,19.13,19.13,0,0,1-4.33-.45A13.52,13.52,0,0,1,298.05,97.84Z" style="fill:#c7c7c7"></path><rect x="351.79" y="78.97" width="1.01" height="5.5" style="fill:#a6a6a6"></rect><path d="M354.89,76.75c-.3,3.3-2.59,3.84-2.59,3.84s-2.29-.54-2.6-3.84,2.6-7.14,2.6-7.14S355.19,73.46,354.89,76.75Z" style="fill:#FF725E"></path><path d="M354.89,76.75c-.3,3.3-2.59,3.84-2.59,3.84s-2.29-.54-2.6-3.84,2.6-7.14,2.6-7.14S355.19,73.46,354.89,76.75Z" style="opacity:0.1"></path><path d="M354.09,77.94a1.93,1.93,0,1,1-3.58,0C350.3,75.67,352.3,73,352.3,73S354.29,75.67,354.09,77.94Z" style="fill:#FF725E"></path><polygon points="362.79 124.11 341.8 124.11 342.37 83.14 362.22 83.14 362.79 124.11" style="fill:#dbdbdb"></polygon><path d="M343.81,84.47a28.69,28.69,0,0,0,4.18.77,32.58,32.58,0,0,0,4.19.22,34.88,34.88,0,0,0,4.2-.3c1.4-.17,2.79-.44,4.21-.69-.65.31-1.31.59-2,.85a19,19,0,0,1-2.08.61,20.27,20.27,0,0,1-4.33.53,19.72,19.72,0,0,1-4.33-.45A13.52,13.52,0,0,1,343.81,84.47Z" style="fill:#c7c7c7"></path><rect x="328.6" y="62.34" width="1.01" height="5.5" style="fill:#a6a6a6"></rect><path d="M331.7,60.13c-.3,3.29-2.6,3.83-2.6,3.83s-2.29-.54-2.59-3.83S329.1,53,329.1,53,332,56.83,331.7,60.13Z" style="fill:#FF725E"></path><path d="M331.7,60.13c-.3,3.29-2.6,3.83-2.6,3.83s-2.29-.54-2.59-3.83S329.1,53,329.1,53,332,56.83,331.7,60.13Z" style="opacity:0.1"></path><path d="M330.89,61.32a1.92,1.92,0,1,1-3.57,0c-.21-2.28,1.78-4.93,1.78-4.93S331.1,59,330.89,61.32Z" style="fill:#FF725E"></path><polygon points="339.1 124.11 319.11 124.11 319.68 66.52 338.53 66.52 339.1 124.11" style="fill:#dbdbdb"></polygon><path d="M321.11,67.84c1.34.17,2.67.3,4,.44s2.63.23,3.95.27,2.62,0,3.93-.06a26.8,26.8,0,0,0,3.91-.65,11.92,11.92,0,0,1-3.81,1.42,19.82,19.82,0,0,1-4.07.29A22.3,22.3,0,0,1,321.11,67.84Z" style="fill:#c7c7c7"></path><path d="M55.86,41.43v215.5H220.74V41.43ZM216.39,252.58H60.21V45.78H216.39Z" style="fill:#ebebeb"></path><rect x="60.21" y="45.78" width="156.18" height="206.8" style="fill:#fff"></rect><rect x="137.82" y="46.91" width="4.35" height="207.84" style="fill:#ebebeb"></rect><rect x="51.92" y="50.22" width="172.77" height="6.05" transform="translate(276.6 106.49) rotate(180)" style="fill:#ebebeb"></rect><rect x="51.92" y="57.03" width="172.77" height="6.05" transform="translate(276.6 120.11) rotate(180)" style="fill:#ebebeb"></rect><rect x="51.92" y="63.84" width="172.77" height="6.05" transform="translate(276.6 133.74) rotate(180)" style="fill:#ebebeb"></rect><rect x="51.92" y="70.65" width="172.77" height="6.05" transform="translate(276.6 147.36) rotate(180)" style="fill:#ebebeb"></rect><rect x="51.92" y="77.46" width="172.77" height="6.05" transform="translate(276.6 160.98) rotate(180)" style="fill:#ebebeb"></rect><rect x="51.92" y="84.27" width="172.77" height="6.05" transform="translate(276.6 174.6) rotate(180)" style="fill:#ebebeb"></rect><rect x="51.92" y="91.09" width="172.77" height="6.05" transform="translate(276.6 188.23) rotate(180)" style="fill:#ebebeb"></rect><rect x="51.92" y="97.9" width="172.77" height="6.05" transform="translate(276.6 201.85) rotate(180)" style="fill:#ebebeb"></rect><rect x="51.92" y="104.71" width="172.77" height="6.05" transform="translate(276.6 215.47) rotate(180)" style="fill:#ebebeb"></rect><rect x="64.83" y="48.99" width="1.09" height="139.55" style="fill:#263238"></rect><polygon points="63.44 193.6 67.3 193.6 66.33 188.06 64.41 188.06 63.44 193.6" style="fill:#263238"></polygon><rect x="60.91" y="48.99" width="1.09" height="201.88" style="fill:#263238"></rect><polygon points="59.53 254.95 63.38 254.95 62.42 249.4 60.49 249.4 59.53 254.95" style="fill:#263238"></polygon><rect x="45.17" y="40.58" width="186.26" height="12.67" transform="translate(276.6 93.82) rotate(180)" style="fill:#dbdbdb"></rect><rect x="37.25" y="362.33" width="425.5" height="36.49" style="fill:#ebebeb"></rect></g><g id="freepik--Floor--inject-23"><polygon points="35.45 398.82 89.08 398.58 142.72 398.49 250 398.32 357.28 398.49 410.92 398.58 464.56 398.82 410.92 399.06 357.28 399.15 250 399.32 142.72 399.15 89.08 399.06 35.45 398.82" style="fill:#263238"></polygon></g><g id="freepik--Shadow--inject-23"><ellipse cx="250" cy="443.14" rx="210.09" ry="24.49" style="fill:#ebebeb"></ellipse></g><g id="freepik--character-2--inject-23"><rect x="337.68" y="249.91" width="54.2" height="21.71" transform="translate(-15.92 23.85) rotate(-3.66)" style="fill:#c7c7c7"></rect><path d="M292,200.86c1.16,28.29,8.84,49.41,12.16,52.39,9.86,8.85,42.49,4.11,50.78,3.16,3.57-.41,5.57-27.07,1.75-27.48-5.66-.61-34.66,4.71-36.15,2.89-3.29-4-6.05-11.43-15.93-30.21C295.58,184.4,291.67,192.7,292,200.86Z" style="fill:#774442"></path><path d="M354.84,228.89a42.38,42.38,0,0,1,19.5,2.12c3.76,1.35,9.49,4.05,12.07,6,3.86,2.9,18.14,17.51,14.68,21.05-3.14,3.21-13.82-10.9-13.82-10.9s12,13.28,7.54,16.45-14.43-14.39-14.43-14.39,12.06,13.93,6.91,16.46c-3.89,1.91-13.79-13.47-13.79-13.47s10.28,12,6.37,14.18c-4.33,2.36-14.36-11.27-14.36-11.27-10.87,3.76-17.34,1.32-21.89-1.13C342.52,253.38,354.84,228.89,354.84,228.89Z" style="fill:#774442"></path><path d="M383.4,242.28c1.47,1.51,3,3,4.3,4.67s2.6,3.31,3.78,5.07a35.87,35.87,0,0,1,3.91,7.25c-2.15-4.41-6.82-10.34-8.15-12s-2.58-3.33-3.91-5C383.3,242.29,383.36,242.25,383.4,242.28Z" style="fill:#263238"></path><path d="M377.41,247c1.79,2,3.65,3.94,5.35,6s3.13,4.2,4.68,6.39c.12.17,0,.18-.14,0-1.64-2.13-3.31-4-5-6.07s-3.24-4.28-5-6.32C377.33,247,377.38,247,377.41,247Z" style="fill:#263238"></path><path d="M371.54,250.09a60.21,60.21,0,0,1,7.48,9.84c.11.17-.06.17-.18,0-2.43-3.32-4.3-5.94-7.4-9.74C371.39,250.13,371.48,250,371.54,250.09Z" style="fill:#263238"></path><path d="M304.32,197.55c-6.67-13.77-12.64-10.07-13.11,3.61-.44,12.79,1.48,28.43,1.48,28.43l23.77-7Z" style="fill:#c7c7c7"></path><path d="M304.32,197.55c-6.67-13.77-12.64-10.07-13.11,3.61-.44,12.79,1.48,28.43,1.48,28.43l23.77-7Z" style="fill:#FF725E"></path><path d="M316.46,222.58l-19.75,5.82h0l-.33.09h0l-.92.27h0l-.69.2-2.05.61s-1.92-15.64-1.48-28.43c.47-13.68,6.44-17.38,13.11-3.61Z" style="fill:#FF725E"></path><path d="M303,201.39a2.39,2.39,0,0,1,1.31-.07,1.27,1.27,0,0,1,.82,1.16,1,1,0,0,0,.45.85,1.07,1.07,0,0,0,.52.17c.21,0,.42.06.63.12a2.26,2.26,0,0,1-1.32,0,1.28,1.28,0,0,1-.77-1.18,1,1,0,0,0-.49-.83,1.07,1.07,0,0,0-.53-.15Zm-9.38,26.85c-.48.21-.66.63-.9,1,.19-.11.35-.24.53-.36a1.15,1.15,0,0,1,.49-.25,1,1,0,0,1,.92.28.41.41,0,0,0,.13.1l.69-.2a.86.86,0,0,1-.48-.25A1.29,1.29,0,0,0,293.57,228.24Zm2.81.26.33-.09h0l.18-.25C296.7,228.26,296.56,228.39,296.38,228.5Zm.91-35.77a1.07,1.07,0,0,1-.16.53,1,1,0,0,1-.82.48,1.27,1.27,0,0,0-1.18.78,2.26,2.26,0,0,0,.05,1.32c.05-.21.08-.42.12-.63a1,1,0,0,1,1-1,1.27,1.27,0,0,0,1.16-.82,2.53,2.53,0,0,0-.07-1.32C297.35,192.31,297.33,192.52,297.29,192.73Zm0,16a1.1,1.1,0,0,1-.16.53,1,1,0,0,1-.82.48,1.25,1.25,0,0,0-1.18.78,2.23,2.23,0,0,0,.05,1.31c.05-.21.08-.41.12-.62a1,1,0,0,1,1-1,1.25,1.25,0,0,0,1.16-.81,2.53,2.53,0,0,0-.07-1.32C297.35,208.33,297.33,208.54,297.29,208.75Zm8,9.36a1.14,1.14,0,0,1,.48-.26,1,1,0,0,1,.93.24,1.29,1.29,0,0,0,1.38.29c.48-.21.66-.63.9-1-.19.11-.35.24-.53.36a1.15,1.15,0,0,1-.49.25,1,1,0,0,1-.92-.28,1.26,1.26,0,0,0-1.4-.25,2.63,2.63,0,0,0-.88,1C305,218.36,305.16,218.23,305.34,218.11Z" style="fill:#fff"></path><path d="M290.28,210.11c.23.7.48,1.41.67,2.13.08.29.15.59.23.89q-.17-3.7-.3-7.4a0,0,0,0,1,.05,0c.36,4,.74,8.06,1,12.1a116.05,116.05,0,0,1,.62,11.64,13.38,13.38,0,0,1,2.18-.36,9.82,9.82,0,0,1-2.45.72,120,120,0,0,1-.93-12.15c-.06-1.11-.11-2.22-.16-3.33-.14-.69-.34-1.36-.52-2s-.34-1.45-.5-2.17C290.2,210.08,290.27,210.06,290.28,210.11Z" style="fill:#263238"></path><path d="M293.65,226c3.34-1.22,17.21-5.71,20.27-6.49.21,0,.3.07.09.15a195.9,195.9,0,0,1-20.31,6.47C293.62,226.12,293.56,226,293.65,226Z" style="fill:#263238"></path><path d="M297.07,444.06c-3.3.05-24.39,2.42-28.33-.84-11-9.11-34.13-31.59-34.13-34.5,0-2.38,44.11-45,44.11-45l34.78,26.55-32.72,29.85s.22,6.32,2,7.69c0,0,15.61,9.08,16,10.27C299.64,441.21,299.46,444,297.07,444.06Z" style="fill:#774442"></path><path d="M297.07,444.06c-3.3.06-24.38,2.42-28.32-.85-11-9.1-34.15-31.59-34.15-34.49,0-1.06,8.77-10.11,18.48-19.81l31.56,27.71-3.87,3.54s.24,6.32,2,7.69c0,0,15.62,9.08,16,10.27C299.65,441.21,299.46,444,297.07,444.06Z" style="fill:#ebebeb"></path><path d="M298.14,444.85c-1.59,0-26,1.46-29.94-.53-5.39-2.74-34.34-33.44-35-35-.44-1.06,6.67-8.16,16.68-17.29l31.18,28.15,1.13,5.64s17.36,11.5,17.75,12.81C300.89,441.8,300.61,444.77,298.14,444.85Z" style="fill:#FF725E"></path><path d="M283.66,423.1c-3.4-2.94-8.41-5.07-12.9-4.05-.18,0-.12.29,0,.32a62.1,62.1,0,0,1,12.57,4.2A.28.28,0,0,0,283.66,423.1Z" style="fill:#263238"></path><path d="M285.11,425.91c-3.66-2.59-8.85-4.24-13.23-2.79-.17.06-.09.3.06.32a61.77,61.77,0,0,1,12.92,3A.28.28,0,0,0,285.11,425.91Z" style="fill:#263238"></path><path d="M287.67,428.94c-3.74-2.49-9-4-13.31-2.44-.16.06-.08.3.07.31a62.1,62.1,0,0,1,13,2.64A.29.29,0,0,0,287.67,428.94Z" style="fill:#263238"></path><path d="M291.24,432.22c-3.75-2.48-9-4-13.32-2.38-.16.06-.08.3.07.31a62.08,62.08,0,0,1,13,2.58A.29.29,0,0,0,291.24,432.22Z" style="fill:#263238"></path><path d="M277.43,445.35c-4.3-.08-7.93-.37-9.24-1-5.37-2.74-34.33-33.44-35-35-.35-.87,4.41-5.84,11.69-12.67Z" style="opacity:0.1"></path><path d="M290.31,416.24l-37.23-31.41s47.94-48,46.48-53.34c-.74-2.65-51.76-32.61-60-48.05-10.74-20.05,8.33-36.69,8.33-36.69L292,262.65s-4.12,8.91-3,11c.76,1.36,64.31,36.84,63.1,56.63C350.65,354.51,290.31,416.24,290.31,416.24Z" style="fill:#37474f"></path><path d="M295.27,406.91a28,28,0,0,0-2.92-2.63c-1.05-.9-2.09-1.79-3.15-2.67-2.09-1.72-4.2-3.41-6.35-5.05-4.32-3.31-8.67-6.6-13.08-9.8-2.3-1.67-7.22-5.26-7.58-5.34-.17,0-.32.22-.19.33,4.07,3.58,8.3,6.94,12.54,10.32s8.46,6.74,12.85,9.9c1.21.88,2.45,1.72,3.67,2.58a33.53,33.53,0,0,0,3.95,2.64C295.15,407.26,295.39,407,295.27,406.91Z" style="fill:#263238"></path><rect x="295.46" y="355.55" width="79.47" height="21.71" transform="translate(-161.4 365.12) rotate(-47.4)" style="fill:#c7c7c7"></rect><rect x="197.03" y="432.45" width="25.41" height="6.79" style="fill:#263238"></rect><rect x="232.57" y="327.71" width="25.41" height="6.79" transform="translate(93.13 -51.83) rotate(14.86)" style="fill:#263238"></rect><path d="M212.85,436.33l-7-.4c3.35-58.86,34.54-104,35.87-105.87l5.73,4C247.15,334.53,216.08,379.52,212.85,436.33Z" style="fill:#263238"></path><rect x="210.27" y="308.42" width="79.47" height="21.71" transform="translate(101.22 -57.95) rotate(16.54)" style="fill:#c7c7c7"></rect><polygon points="227.88 368.97 225.46 362.4 275.18 344.13 345.41 174.71 351.88 177.39 280.48 349.64 227.88 368.97" style="fill:#263238"></polygon><rect x="288.19" y="292.42" width="55.91" height="7" transform="matrix(0.84, -0.54, 0.54, 0.84, -109.99, 218.96)" style="fill:#263238"></rect><rect x="326.4" y="277.35" width="25.41" height="6.79" transform="translate(-17.25 22.25) rotate(-3.66)" style="fill:#263238"></rect><rect x="275.88" y="360.81" width="79.47" height="21.71" transform="translate(-171.6 352.41) rotate(-47.4)" style="fill:#c7c7c7"></rect><rect x="351.56" y="432.45" width="25.41" height="6.79" transform="translate(728.53 871.69) rotate(180)" style="fill:#263238"></rect><rect x="298.91" y="373.38" width="61.39" height="6.79" transform="translate(830.05 389.19) rotate(132.6)" style="fill:#263238"></rect><path d="M361.15,436.44c-3.86-44-27.76-61.68-28-61.85l4.07-5.7c1.09.77,26.75,19.53,30.9,66.94Z" style="fill:#263238"></path><rect x="366.59" y="432.45" width="25.41" height="6.79" transform="translate(758.6 871.69) rotate(180)" style="fill:#263238"></rect><rect x="313.94" y="373.38" width="61.39" height="6.79" transform="translate(855.26 378.12) rotate(132.6)" style="fill:#263238"></rect><path d="M376.18,436.44c-3.85-44-27.75-61.68-28-61.85l4.06-5.7c1.09.77,26.75,19.53,30.91,66.94Z" style="fill:#263238"></path><polygon points="274.86 437.01 212.4 411.06 215.09 404.59 273.25 428.76 315.31 387.16 320.23 392.14 274.86 437.01" style="fill:#263238"></polygon><path d="M263.83,446c-3.3,0-24.38,2.42-28.32-.84-11-9.11-34.14-31.59-34.14-34.5,0-2.38,44.11-45,44.11-45l34.78,26.55-32.72,29.85s.23,6.32,2,7.69c0,0,15.61,9.08,16,10.27C266.4,443.13,266.22,446,263.83,446Z" style="fill:#774442"></path><path d="M263.83,446c-3.3.06-24.38,2.42-28.32-.85-11-9.1-34.14-31.58-34.14-34.48,0-1.06,8.76-10.12,18.47-19.81l31.57,27.7-3.88,3.54s.24,6.32,2,7.7c0,0,15.62,9.07,16,10.26C266.41,443.13,266.22,446,263.83,446Z" style="fill:#ebebeb"></path><path d="M264.91,446.77c-1.59.05-26,1.46-30-.53-5.38-2.74-34.34-33.44-35-35-.44-1.06,6.68-8.16,16.68-17.29l31.19,28.15,1.12,5.64s17.36,11.5,17.75,12.81C267.66,443.72,267.37,446.69,264.91,446.77Z" style="fill:#FF725E"></path><path d="M250.42,425c-3.4-2.94-8.4-5.07-12.9-4-.18,0-.12.29,0,.32a62.4,62.4,0,0,1,12.58,4.2A.28.28,0,0,0,250.42,425Z" style="fill:#263238"></path><path d="M251.87,427.83c-3.66-2.59-8.85-4.24-13.23-2.79-.17.06-.09.3.06.32a61.86,61.86,0,0,1,12.93,3A.28.28,0,0,0,251.87,427.83Z" style="fill:#263238"></path><path d="M254.43,430.86c-3.73-2.49-9-4-13.3-2.44-.17.06-.08.3.07.31a62,62,0,0,1,13,2.64A.29.29,0,0,0,254.43,430.86Z" style="fill:#263238"></path><path d="M258,434.14c-3.74-2.48-9-4-13.31-2.38-.17.06-.08.3.07.31a62.12,62.12,0,0,1,13,2.58A.29.29,0,0,0,258,434.14Z" style="fill:#263238"></path><path d="M221.66,434.34c-9.84-9.79-21.28-22.13-21.69-23.11s6.48-8,16.26-16.9Z" style="opacity:0.1"></path><path d="M256.16,418.24l-33.1-30.6s55.91-56.81,53.09-62.11c-5.28-9.94-45-15.13-51.27-39.69-5.59-22,15.76-41.88,15.76-41.88l49.17,17.72a107.81,107.81,0,0,1-10.54,13.53S329.6,305,331.68,328.73C333.54,349.9,256.16,418.24,256.16,418.24Z" style="fill:#37474f"></path><path d="M289.13,275.25a25.67,25.67,0,0,0-4.64-.3c-1.6,0-3.22,0-4.82.17a85.35,85.35,0,0,0-9.4,1.32c-.1,0-.06.15,0,.14,3.17-.33,6.37-.49,9.55-.59l4.59-.14a45.35,45.35,0,0,0,4.67-.19C289.31,275.63,289.34,275.29,289.13,275.25Z" style="fill:#263238"></path><path d="M291,262.11c-1.43,2-2.8,4-4.3,6-.69.89-1.38,1.8-2.15,2.63A3,3,0,0,1,282,272c-1.18-.22-1.12-1.29-.68-2.16A32.33,32.33,0,0,1,283,267l4-6.25c0-.08.05-.1,0-.18a.09.09,0,0,0-.1,0,51,51,0,0,0-3.86,4.82c-.69,1-1.38,1.93-2.06,2.9a5.41,5.41,0,0,0-1.19,2.38,2,2,0,0,0,1.19,2.11,1.57,1.57,0,0,0-.21.17c-.18.18-.34.38-.51.57s-.34.4-.5.61a2,2,0,0,0-.2.31c-.07.13-.09.26-.16.39a.2.2,0,0,0,.3.25,3.78,3.78,0,0,1,.33-.22,2.91,2.91,0,0,0,.3-.31,6.38,6.38,0,0,0,.46-.6c.15-.2.3-.4.44-.61s.13-.26.2-.39a2.82,2.82,0,0,0,1.47,0,4.52,4.52,0,0,0,2.12-1.51c.7-.79,1.34-1.64,2-2.49a43.42,43.42,0,0,0,4.23-6.59A.22.22,0,0,0,291,262.11Z" style="fill:#263238"></path><path d="M259.91,256.14c-.64,1-1.21,2.08-1.89,3.07s-1.38,1.93-2.14,2.83a12.12,12.12,0,0,1-2.48,2.32,11.54,11.54,0,0,1-3,1.35,20.07,20.07,0,0,1-6.35.85,26.93,26.93,0,0,1-3.23-.3,15.76,15.76,0,0,1-1.66-.34,3.68,3.68,0,0,0-1.36-.2.27.27,0,0,0-.14.44,4.74,4.74,0,0,0,2.27,1,17,17,0,0,0,2.63.54,19,19,0,0,0,5.43-.13,15.83,15.83,0,0,0,5.15-1.64,11.92,11.92,0,0,0,3.87-3.74,24,24,0,0,0,3.12-5.93A.11.11,0,0,0,259.91,256.14Z" style="fill:#263238"></path><path d="M262.51,410.24c-.82-1-9.62-9.49-11.63-11.31-4.06-3.67-8.13-7.33-12.26-10.91-2.16-1.87-6.76-5.89-7.1-6a.17.17,0,0,0-.18.27c3.81,3.88,7.78,7.59,11.74,11.31s17.86,16,19.18,16.88C262.39,410.55,262.62,410.39,262.51,410.24Z" style="fill:#263238"></path><path d="M282.23,325.64c0-4.1-29.15-19.74-35.41-23.35-5.46-3.15-10.63-7.25-13.69-12.88-3.34-6.16-3.29-13.52-1.46-20.14,2.14-7.73,6.6-14.59,11.06-21.16.05-.09-.08-.16-.14-.08-4,5.95-8.11,11.91-10.62,18.67-2.37,6.41-3.19,13.74-.83,20.28,2.15,6,6.8,10.59,12,14.1,6.07,4.15,36.88,19.68,38.22,24.3.65,2.24-10.18,15.4-15.78,22.74s-11.63,14.64-17.9,21.57q-5.28,5.83-10.8,11.47c-.06.07,0,.16.11.1,6.77-6.51,13.15-13.38,19.28-20.49S282.23,328.75,282.23,325.64Z" style="fill:#263238"></path><path d="M332.11,330a21.73,21.73,0,0,0-2.48-8.87,50,50,0,0,0-4.55-7.74,87.44,87.44,0,0,0-11.8-13.12,179,179,0,0,0-14.4-12.1c-2.83-2.13-5.71-4.18-8.67-6.12a116.34,116.34,0,0,0-9.8-6.29c-.11-.06-1.05-.07-.94,0,5.07,3.58,11.7,7.95,16.66,11.69s9.56,7.53,14.08,11.6a101.94,101.94,0,0,1,12.11,12.56c3.54,4.51,7.34,11.09,8.68,16.73.8,3.34-3.57,13.67-5.5,16.25-.1.12.07.29.18.17C329.49,340.54,332.14,333.49,332.11,330Z" style="fill:#263238"></path><path d="M283.86,391.86a136.22,136.22,0,0,0-10.46,10.49.08.08,0,0,0,.12.11A136.22,136.22,0,0,0,284,392C284,391.89,283.93,391.8,283.86,391.86Z" style="fill:#263238"></path><path d="M291.36,271.77c-1.35.67-61.75-15.79-61.92-16.29-.46-1.38,22.42-38.71,34.2-51.53,7.49-8.14,12.61-11.92,16.46-13.79,2.32-1.13,3.24-1.87,4.88-2.16.88-.16,1.7-.26,2.5-.42,4-.77,13.42,3.53,14.74,4.76,1.51,1.37,2.57,11,1.54,18.79S292.54,271.17,291.36,271.77Z" style="fill:#FF725E"></path><path d="M272,210.91a2.5,2.5,0,0,1,1.31-.06,1.25,1.25,0,0,1,.82,1.16,1,1,0,0,0,.45.85,1,1,0,0,0,.52.16c.21,0,.42.07.63.13a2.18,2.18,0,0,1-1.32,0,1.26,1.26,0,0,1-.77-1.18,1,1,0,0,0-.49-.82,1,1,0,0,0-.53-.15C272.45,211,272.25,211,272,210.91Zm32-9.63a2.8,2.8,0,0,0-1.13.11l.62.12a1.07,1.07,0,0,1,.53.15C304.1,201.53,304.09,201.4,304.08,201.28Zm-19.88,51a1.07,1.07,0,0,1,.53.16.94.94,0,0,1,.48.82,1.26,1.26,0,0,0,.78,1.18,2.22,2.22,0,0,0,1.31-.05c-.2,0-.41-.08-.62-.12a1,1,0,0,1-1-1,1.27,1.27,0,0,0-.82-1.16,2.53,2.53,0,0,0-1.32.07C283.78,252.24,284,252.26,284.2,252.3Zm-27.9-24a1.07,1.07,0,0,1,.53.16.94.94,0,0,1,.48.82,1.28,1.28,0,0,0,.78,1.18,2.26,2.26,0,0,0,1.32-.05l-.63-.12a1.07,1.07,0,0,1-.52-.17,1,1,0,0,1-.45-.85,1.27,1.27,0,0,0-.82-1.16,2.49,2.49,0,0,0-1.31.07A6.18,6.18,0,0,0,256.3,228.3Zm12.51,17.5a1,1,0,0,1,.53.15,1,1,0,0,1,.48.82,1.25,1.25,0,0,0,.78,1.18,2.15,2.15,0,0,0,1.31,0,6.18,6.18,0,0,0-.62-.12,1.07,1.07,0,0,1-.52-.17,1,1,0,0,1-.45-.85,1.26,1.26,0,0,0-.82-1.16,2.43,2.43,0,0,0-1.32.07Zm1.51,20.52a1.27,1.27,0,0,0-.82-1.16,2.53,2.53,0,0,0-1.32.07c.21.06.42.08.63.12a1.07,1.07,0,0,1,.53.16,1,1,0,0,1,.48.82,1.12,1.12,0,0,0,.05.36l.59.15A.85.85,0,0,1,270.32,266.32ZM238,244a1.07,1.07,0,0,1-.52-.17,1,1,0,0,1-.45-.85,1.27,1.27,0,0,0-.27-.75c-.09.15-.18.3-.28.45a.81.81,0,0,1,.06.31,1.27,1.27,0,0,0,.77,1.18,2.26,2.26,0,0,0,1.32-.05Zm8.33,5.51a1.14,1.14,0,0,1,.54.15,1,1,0,0,1,.48.83,1.28,1.28,0,0,0,.77,1.18,2.26,2.26,0,0,0,1.32-.05c-.21-.06-.42-.08-.63-.12a1.07,1.07,0,0,1-.52-.17,1,1,0,0,1-.45-.85,1.27,1.27,0,0,0-.82-1.16,2.39,2.39,0,0,0-1.31.07Zm32.78-20.69a1.18,1.18,0,0,1,.53.15,1,1,0,0,1,.49.83,1.27,1.27,0,0,0,.77,1.18,2.26,2.26,0,0,0,1.32-.05c-.21-.06-.42-.08-.63-.12a1.07,1.07,0,0,1-.52-.17,1,1,0,0,1-.45-.85,1.27,1.27,0,0,0-.82-1.16,2.39,2.39,0,0,0-1.31.07Zm4.05-36.37a1.07,1.07,0,0,1,.53.15,1,1,0,0,1,.49.83,1.28,1.28,0,0,0,.77,1.18,2.26,2.26,0,0,0,1.32-.05c-.21-.06-.42-.08-.63-.12a1.07,1.07,0,0,1-.52-.17,1,1,0,0,1-.45-.85,1.26,1.26,0,0,0-.82-1.16,2.39,2.39,0,0,0-1.31.07ZM264,204.78a1.11,1.11,0,0,1-.48.27,1,1,0,0,1-.77-.12,3.73,3.73,0,0,0-.32.36,1.22,1.22,0,0,0,1.22.11c.47-.23.63-.63.88-1A6.06,6.06,0,0,0,264,204.78Zm32.34,23.73a1.12,1.12,0,0,1-.49.26,1,1,0,0,1-.92-.24,1.29,1.29,0,0,0-1.38-.29c-.48.21-.66.63-.9,1,.19-.11.35-.24.53-.36a1.15,1.15,0,0,1,.49-.25,1,1,0,0,1,.92.28,1.26,1.26,0,0,0,1.4.25,2.63,2.63,0,0,0,.88-1C296.7,228.26,296.53,228.39,296.36,228.51ZM274.9,196.7a1.07,1.07,0,0,1-.16.53,1,1,0,0,1-.82.48,1.26,1.26,0,0,0-1.18.78,2.23,2.23,0,0,0,.05,1.31c0-.2.08-.41.12-.62a1.07,1.07,0,0,1,.17-.52,1,1,0,0,1,.85-.46,1.25,1.25,0,0,0,1.16-.81,2.53,2.53,0,0,0-.07-1.32C275,196.28,274.94,196.49,274.9,196.7Zm-5,36.67a1.18,1.18,0,0,1-.15.53,1,1,0,0,1-.83.48,1.28,1.28,0,0,0-1.18.78,2.26,2.26,0,0,0,.05,1.32c.06-.21.08-.42.12-.63a1.07,1.07,0,0,1,.17-.52,1,1,0,0,1,.85-.45,1.27,1.27,0,0,0,1.16-.82,2.49,2.49,0,0,0-.07-1.31A6.18,6.18,0,0,0,269.93,233.37ZM295.76,241a1,1,0,0,1-.15.53,1,1,0,0,1-.82.48,1.25,1.25,0,0,0-1.18.78,2.15,2.15,0,0,0,0,1.31c.06-.21.08-.41.13-.62a1,1,0,0,1,.16-.52,1,1,0,0,1,.85-.46,1.24,1.24,0,0,0,1.16-.81,2.43,2.43,0,0,0-.07-1.32C295.83,240.62,295.81,240.83,295.76,241Zm-1.87,21a1.25,1.25,0,0,0-.28.41,1.54,1.54,0,0,0,0,1Zm-44.18-27.36a1.07,1.07,0,0,1-.15.53,1,1,0,0,1-.83.49,1.28,1.28,0,0,0-1.18.77,2.26,2.26,0,0,0,0,1.32c.06-.21.08-.42.12-.63a1.07,1.07,0,0,1,.17-.52,1,1,0,0,1,.85-.45,1.26,1.26,0,0,0,1.16-.82,2.39,2.39,0,0,0-.07-1.31C249.78,234.27,249.75,234.47,249.71,234.68Zm9.9-21.22a1.22,1.22,0,0,1-.15.53,1,1,0,0,1-.83.48,1.26,1.26,0,0,0-1.18.78,2.23,2.23,0,0,0,.05,1.31c.06-.21.08-.41.12-.62a1.07,1.07,0,0,1,.17-.52,1,1,0,0,1,.85-.46,1.25,1.25,0,0,0,1.16-.81,2.53,2.53,0,0,0-.07-1.32C259.67,213,259.65,213.25,259.61,213.46Zm28.93,4.44a1,1,0,0,1-.15.53,1,1,0,0,1-.82.49,1.26,1.26,0,0,0-1.18.77,2.18,2.18,0,0,0,0,1.32c.06-.21.08-.42.13-.63a1,1,0,0,1,.16-.52,1,1,0,0,1,.85-.45,1.25,1.25,0,0,0,1.16-.82,2.39,2.39,0,0,0-.07-1.31C288.61,217.49,288.59,217.69,288.54,217.9Zm8.75-25.17a1.07,1.07,0,0,1-.16.53,1,1,0,0,1-.82.48,1.27,1.27,0,0,0-1.18.78,2.26,2.26,0,0,0,.05,1.32c.05-.21.08-.42.12-.63a1,1,0,0,1,1-1,1.27,1.27,0,0,0,1.16-.82,2.53,2.53,0,0,0-.07-1.32C297.35,192.31,297.33,192.52,297.29,192.73ZM261.8,255a1.07,1.07,0,0,1-.15.53,1,1,0,0,1-.83.48,1.27,1.27,0,0,0-1.18.78,2.23,2.23,0,0,0,.05,1.31c.06-.21.08-.41.12-.62A1.07,1.07,0,0,1,260,257a1,1,0,0,1,.85-.46,1.25,1.25,0,0,0,1.16-.81,2.43,2.43,0,0,0-.07-1.32C261.87,254.62,261.84,254.83,261.8,255Zm21.66,10.68a1.07,1.07,0,0,1-.16.53,1,1,0,0,1-.82.48,1.25,1.25,0,0,0-1.18.78,2.23,2.23,0,0,0,.05,1.31c0-.2.08-.41.12-.62a1,1,0,0,1,.16-.52,1,1,0,0,1,.86-.46,1.23,1.23,0,0,0,1.15-.81,2.53,2.53,0,0,0-.06-1.32C283.52,265.3,283.5,265.51,283.46,265.72Zm13.83-57a1.1,1.1,0,0,1-.16.53,1,1,0,0,1-.82.48,1.25,1.25,0,0,0-1.18.78,2.23,2.23,0,0,0,.05,1.31c.05-.21.08-.41.12-.62a1,1,0,0,1,1-1,1.25,1.25,0,0,0,1.16-.81,2.53,2.53,0,0,0-.07-1.32C297.35,208.33,297.33,208.54,297.29,208.75Zm-13.43-3.64a1.12,1.12,0,0,1,.49-.26,1,1,0,0,1,.92.24,1.29,1.29,0,0,0,1.38.29,2.31,2.31,0,0,0,.9-1c-.19.11-.35.24-.53.36a1,1,0,0,1-.49.24,1,1,0,0,1-.92-.28,1.26,1.26,0,0,0-1.39-.24c-.47.23-.64.64-.89,1C283.52,205.36,283.69,205.23,283.86,205.11Zm-16.51,16.6a1.14,1.14,0,0,1,.49-.27,1,1,0,0,1,.92.25,1.28,1.28,0,0,0,1.39.28c.48-.21.65-.62.89-1-.19.11-.35.24-.53.35a1,1,0,0,1-.48.25,1,1,0,0,1-.93-.28,1.24,1.24,0,0,0-1.39-.24,2.41,2.41,0,0,0-.88,1C267,222,267.18,221.83,267.35,221.71Zm-32.67,33.75a1.11,1.11,0,0,1,.48-.27,1,1,0,0,1,.93.24,1.25,1.25,0,0,0,1.38.29c.48-.21.65-.63.89-1-.18.11-.35.24-.52.36a1,1,0,0,1-1.41,0,1.26,1.26,0,0,0-1.4-.24,2.35,2.35,0,0,0-.88,1C234.34,255.71,234.5,255.58,234.68,255.46Zm21.24-11.23a1.14,1.14,0,0,1,.48-.26,1,1,0,0,1,.93.24,1.29,1.29,0,0,0,1.38.29c.48-.21.66-.63.9-1-.19.11-.35.24-.53.36a1.15,1.15,0,0,1-.49.25,1,1,0,0,1-.92-.28,1.26,1.26,0,0,0-1.4-.25,2.63,2.63,0,0,0-.88,1C255.58,244.48,255.74,244.35,255.92,244.23ZM281,241.37a1.11,1.11,0,0,1,.48-.27,1,1,0,0,1,.93.25,1.27,1.27,0,0,0,1.38.28c.48-.21.65-.62.89-1-.18.11-.35.24-.52.35a1,1,0,0,1-.49.25,1,1,0,0,1-.92-.28,1.26,1.26,0,0,0-1.4-.24c-.47.23-.63.64-.88,1C280.65,241.62,280.81,241.49,281,241.37Zm-7.09,16.4a1.06,1.06,0,0,1,.48-.27,1,1,0,0,1,.92.25,1.28,1.28,0,0,0,1.39.28c.48-.21.65-.63.89-1-.18.1-.35.23-.53.35a1,1,0,0,1-1.4,0,1.26,1.26,0,0,0-1.4-.24,2.35,2.35,0,0,0-.88,1C273.55,258,273.72,257.89,273.9,257.77Zm-23.6-35.88a1,1,0,0,1-.47.24h0c-.12.15-.22.31-.32.46a1.18,1.18,0,0,0,.42-.1,2.23,2.23,0,0,0,.9-1C250.64,221.65,250.48,221.78,250.3,221.89Z" style="fill:#fff"></path><path d="M298.15,201.59c-3.69-.58-7.36-8.09-7.94-13.2,0-.35,1.63-3.18,3.5-6.72,1.13-2.15,2.33-4.58,3.27-6.87.19-.47,1.43,1,1.43,1l2.67,1.93,8.83,6.39a39.44,39.44,0,0,0-5,8.23,5.43,5.43,0,0,0-.29,1s0,.1,0,.16C304.16,195.45,301.72,202.15,298.15,201.59Z" style="fill:#774442"></path><path d="M304.64,193.38s0,.1,0,.16a9.69,9.69,0,0,1-1.51-.52c-9.58-4.18-5.76-17-5.76-17l3.75,1.73,8.83,6.39a39.44,39.44,0,0,0-5,8.23A5.43,5.43,0,0,0,304.64,193.38Z" style="fill:#263238"></path><path d="M302.36,156.73c-3.78,4.34-7.59,20.05-5.45,24.88,3.09,7,11.38,11.23,18.14,6.77,6.56-4.32,11.16-24.87,8.48-29.59C319.57,151.83,307.93,150.31,302.36,156.73Z" style="fill:#774442"></path><path d="M296.61,181.31h0" style="fill:none;stroke:#f5a79e;stroke-linecap:round;stroke-linejoin:round;stroke-width:0px"></path><path d="M310.74,168.53a13.9,13.9,0,0,0,1.44-.08,2.37,2.37,0,0,0,1.45-.36.75.75,0,0,0,.14-.9,1.84,1.84,0,0,0-1.73-.7,2.72,2.72,0,0,0-1.83.69A.79.79,0,0,0,310.74,168.53Z" style="fill:#263238"></path><path d="M321.18,171.38a13.08,13.08,0,0,1-1.24-.74c-.47-.28-.88-.46-1.12-1a.74.74,0,0,1,.29-.86A1.86,1.86,0,0,1,321,169a2.68,2.68,0,0,1,1.3,1.45A.79.79,0,0,1,321.18,171.38Z" style="fill:#263238"></path><path d="M307.73,181c.18.31.34.72.71.87a3,3,0,0,0,1.2.06s.06,0,0,.06a1.48,1.48,0,0,1-1.5.19,1.16,1.16,0,0,1-.55-1.17C307.62,181,307.71,181,307.73,181Z" style="fill:#263238"></path><path d="M309.74,178.19a3.7,3.7,0,0,0,1.92,2.28,4.94,4.94,0,0,0,1.26.43l.25,0,.24,0a.26.26,0,0,0,.28-.17h0a.43.43,0,0,0,0-.11h0l0-.09c.26-.8.53-2.05.53-2.05.25.24,1.56,1.35,1.66.92a55.15,55.15,0,0,0,1.73-11.18.1.1,0,0,0-.19,0c-.91,3.38-1.21,6.89-2.07,10.29a6.67,6.67,0,0,0-1.53-1c-.12,0-.49,2.42-.63,2.77l0,0a5.15,5.15,0,0,1-3.36-2.21C309.8,178.05,309.7,178.09,309.74,178.19Z" style="fill:#263238"></path><path d="M312.21,171.86s-.09,0-.1.07c-.21,1-.62,2.21-1.64,2.33,0,0,0,.06,0,.06C311.64,174.43,312.18,172.88,312.21,171.86Z" style="fill:#263238"></path><path d="M311.92,173.23a1.64,1.64,0,0,1-.55.69,1.2,1.2,0,0,1-.94.17,1.11,1.11,0,0,1-.72-.65,1.85,1.85,0,0,1-.11-.86,3,3,0,0,1,.09-.52,2.43,2.43,0,0,1,.49-1,3.49,3.49,0,0,0-.15.77,4.27,4.27,0,0,0,0,.71c0,.49.19.93.56,1s.73-.13,1-.55a7.44,7.44,0,0,0,.65-1.36A3.41,3.41,0,0,1,311.92,173.23Z" style="fill:#263238"></path><path d="M318.05,173.59s.06.06.05.11c-.29,1-.45,2.24.4,2.82,0,0,0,.06,0,0C317.37,176.12,317.61,174.51,318.05,173.59Z" style="fill:#263238"></path><path d="M317.67,174.94a1.71,1.71,0,0,0,.18.86,1.18,1.18,0,0,0,.76.58,1.09,1.09,0,0,0,.94-.24,1.89,1.89,0,0,0,.49-.72,2.88,2.88,0,0,0,.15-.5,2.32,2.32,0,0,0,0-1.08,3.31,3.31,0,0,1-.22.76,4.21,4.21,0,0,1-.31.64c-.24.41-.59.73-.95.62s-.59-.45-.63-.93a7.81,7.81,0,0,1,0-1.52A3.46,3.46,0,0,0,317.67,174.94Z" style="fill:#263238"></path><path d="M299.18,168.17c2.46,1.1,5.28-4.85,5.28-4.85s4,1.24,8.37-2.82c0,0,3.15,5.39,7.45,6.72,6.74,2.1,10.75-6,9.3-8.82-2.06-4-9.63-3.69-9.63-3.69s-7.53-7.05-13.26-2.46a5.09,5.09,0,0,0-6.55,2.31C297.61,158.76,297.35,167.34,299.18,168.17Z" style="fill:#263238"></path><path d="M303.25,163.56a9.14,9.14,0,0,0,5.91-.11,6.84,6.84,0,0,0,4.21-4.66.09.09,0,0,1,.18.05,7.86,7.86,0,0,1-4,5.33,6.38,6.38,0,0,1-6.35-.43C303.08,163.68,303.13,163.52,303.25,163.56Z" style="fill:#263238"></path><path d="M301.15,151.86c2-.9,4-.18,5.79.84a.09.09,0,0,1-.09.16A5.74,5.74,0,0,0,301,153c-1.68,1-2.42,2.89-2.88,4.68a14.4,14.4,0,0,0,1.13,10.29c0,.05-.05.1-.08,0a14.41,14.41,0,0,1-1.38-11.33C298.36,154.79,299.3,152.69,301.15,151.86Z" style="fill:#263238"></path><path d="M319.55,154.88a6.76,6.76,0,0,1,4.74-.83,8.17,8.17,0,0,1,4.84,3.19,4.58,4.58,0,0,1,.32,4.57,8.1,8.1,0,0,1-4,3.7c-.05,0-.09,0,0-.07a8.1,8.1,0,0,0,3.41-3.47,4.23,4.23,0,0,0-.47-4.46c-1.94-2.44-5.73-4.18-8.73-2.48C319.54,155.09,319.45,154.93,319.55,154.88Z" style="fill:#263238"></path><path d="M300.19,170s-1.32-6.14-4-5.86-3.05,8.19-.92,10.2a2.79,2.79,0,0,0,4,.06Z" style="fill:#774442"></path><path d="M296.17,166.36a0,0,0,0,0,0,.06c1.46,1.47,1.7,3.5,1.64,5.48a1.54,1.54,0,0,0-2-1.28c-.06,0,0,.1,0,.11a1.73,1.73,0,0,1,1.51,1.28,8.67,8.67,0,0,1,.24,1.76c0,.19.33.23.35,0v0C298.92,171.51,298.5,167.61,296.17,166.36Z" style="fill:#263238"></path><rect x="275.34" y="240.13" width="54.2" height="21.71" transform="matrix(0.39, -0.92, 0.92, 0.39, -46.54, 431.75)" style="fill:#c7c7c7"></rect><rect x="302.5" y="173.99" width="54.2" height="21.71" transform="translate(30.96 416.39) rotate(-67.07)" style="fill:#c7c7c7"></rect><rect x="316.25" y="255.52" width="54.2" height="21.71" transform="matrix(1, -0.06, 0.06, 1, -16.32, 22.49)" style="fill:#c7c7c7"></rect><path d="M280,199.74c.44,28.3,11.76,51.36,15,54.42,9.63,9.1,42.52,3.45,50.84,2.71,3.58-.32,6.26-26.91,2.44-27.43-5.64-.75-34.76,3.83-36.2,2-3.19-4.12-10.1-11.59-19.49-30.61C284,183.37,279.9,191.56,280,199.74Z" style="fill:#774442"></path><path d="M346.46,229.36A42.28,42.28,0,0,1,365.89,232c3.73,1.45,9.39,4.29,11.92,6.3,3.78,3,17.69,18,14.14,21.42-3.22,3.12-13.54-11.26-13.54-11.26s11.69,13.59,7.13,16.64-14.07-14.75-14.07-14.75S383.17,264.55,378,267c-3.93,1.81-13.44-13.82-13.44-13.82s10,12.3,6,14.34c-4.38,2.25-14.06-11.63-14.06-11.63-11,3.49-17.37.88-21.86-1.69C333.52,253.53,346.46,229.36,346.46,229.36Z" style="fill:#774442"></path><path d="M374.67,243.47c1.43,1.55,2.89,3.11,4.18,4.77s2.52,3.39,3.65,5.17a35.5,35.5,0,0,1,3.72,7.35c-2-4.47-6.55-10.51-7.84-12.18s-2.49-3.39-3.78-5.06C374.57,243.48,374.63,243.44,374.67,243.47Z" style="fill:#263238"></path><path d="M368.56,248c1.74,2,3.55,4,5.2,6.16s3,4.28,4.51,6.5c.11.18,0,.18-.14,0-1.58-2.16-3.21-4-4.82-6.19s-3.13-4.36-4.8-6.44C368.48,248,368.53,248,368.56,248Z" style="fill:#263238"></path><path d="M362.61,251a59.88,59.88,0,0,1,7.23,10c.11.18-.06.17-.18,0-2.34-3.38-4.15-6.05-7.15-9.93C362.46,251,362.55,250.91,362.61,251Z" style="fill:#263238"></path><path d="M292.16,197.46c-7-13.64-12.85-9.81-13,3.87-.18,12.8,2.06,28.4,2.06,28.4l23.62-7.5S296.62,206.18,292.16,197.46Z" style="fill:#c7c7c7"></path><path d="M292.16,197.46c-7-13.64-12.85-9.81-13,3.87-.18,12.8,2.06,28.4,2.06,28.4l23.62-7.5S296.62,206.18,292.16,197.46Z" style="fill:#FF725E"></path><path d="M282.57,192.31a2.39,2.39,0,0,1,1.31-.07,1.26,1.26,0,0,1,.82,1.16,1,1,0,0,0,.45.85,1.07,1.07,0,0,0,.52.17c.21,0,.42.06.63.12a2.26,2.26,0,0,1-1.32.05,1.28,1.28,0,0,1-.77-1.18,1,1,0,0,0-.49-.83,1.07,1.07,0,0,0-.53-.15Zm6,25.59a1,1,0,0,1-.15.53,1,1,0,0,1-.82.49,1.26,1.26,0,0,0-1.18.77,2.18,2.18,0,0,0,0,1.32c.06-.21.08-.42.13-.63a1,1,0,0,1,.16-.52,1,1,0,0,1,.85-.45,1.25,1.25,0,0,0,1.16-.82,2.39,2.39,0,0,0-.07-1.31C288.61,217.49,288.59,217.69,288.54,217.9Zm8.75-9.15a1.1,1.1,0,0,1-.16.53,1,1,0,0,1-.82.48,1.25,1.25,0,0,0-1.18.78,2.23,2.23,0,0,0,.05,1.31c.05-.21.08-.41.12-.62a1,1,0,0,1,1-1,1.25,1.25,0,0,0,1.16-.81,2.53,2.53,0,0,0-.07-1.32C297.35,208.33,297.33,208.54,297.29,208.75Zm-13.43-3.64a1.12,1.12,0,0,1,.49-.26,1,1,0,0,1,.92.24,1.29,1.29,0,0,0,1.38.29,2.31,2.31,0,0,0,.9-1c-.19.11-.35.24-.53.36a1,1,0,0,1-.49.24,1,1,0,0,1-.92-.28,1.26,1.26,0,0,0-1.39-.24c-.47.23-.64.64-.89,1C283.52,205.36,283.69,205.23,283.86,205.11Z" style="fill:#fff"></path><path d="M294.56,201.6c.94,1.79,1.93,3.55,2.91,5.31-.19-.84-.34-1.69-.46-2.56,0,0,.06,0,.06,0,.16.67.34,1.34.48,2,.07.33.14.65.22,1,0,.07,0,.14,0,.21.77,1.37,1.53,2.75,2.26,4.15.86,1.66,1.69,3.35,2.51,5s1.62,3.75,2.55,5.45a12.63,12.63,0,0,1-2.3.76c-.21.08-.32-.13-.1-.16s2-.8,2-.81c-.82-1.7-1.84-3.3-2.72-5s-1.76-3.32-2.6-5c-1.71-3.41-3.22-6.92-4.91-10.34C294.47,201.59,294.54,201.56,294.56,201.6Z" style="fill:#263238"></path><path d="M278.39,210.3c.24.7.5,1.4.7,2.11.09.3.17.59.25.89-.16-2.47-.3-4.93-.45-7.4,0,0,0,0,.05,0,.45,4,.91,8,1.29,12.07a113.1,113.1,0,0,1,.86,11.62,14,14,0,0,1,2.17-.4,10,10,0,0,1-2.43.78,117.35,117.35,0,0,1-1.18-12.14c-.09-1.11-.15-2.22-.23-3.32-.15-.69-.36-1.35-.57-2s-.36-1.44-.54-2.16A0,0,0,0,1,278.39,210.3Z" style="fill:#263238"></path><path d="M282.08,226.09c3.31-1.29,17.08-6.07,20.13-6.91.21-.06.3.06.09.15a195.79,195.79,0,0,1-20.17,6.88C282.05,226.24,282,226.12,282.08,226.09Z" style="fill:#263238"></path></g><g id="freepik--character-1--inject-23"><path d="M238.82,446.7c-2.3.78-68.24,1-70.76-.57-1-.6-1.55-10.2-1.94-21.82-.08-2.51-.15-5.1-.21-7.73l-2-35.17,44.08-.28.84,35.17-.17,7.74s25.29,11.2,27.86,13.23S241.12,445.92,238.82,446.7Z" style="fill: rgb(255, 196, 192);"></path><path d="M238.82,446.7c-2.3.78-68.24,1-70.76-.57-1.16-.73-1.8-14.75-2.15-29.55l42.89-.28-.17,7.74s25.29,11.2,27.86,13.23S241.12,445.92,238.82,446.7Z" style="fill:#fff"></path><path d="M238.82,446.7c-2.3.78-68.24,1-70.76-.57-1-.6-1.55-10.2-1.94-21.82l42.51-.27s25.29,11.2,27.86,13.23S241.12,445.92,238.82,446.7Z" style="fill:#c7c7c7"></path><path d="M237.86,444.06c-11.05-.23-55.66-.12-66.6.49-.09,0-.09.06,0,.07,11,.46,55.56,0,66.61-.38C238.1,444.24,238.1,444.07,237.86,444.06Z" style="fill:#263238"></path><path d="M232.24,434.91a8.9,8.9,0,0,0-6.6,2.73,8.59,8.59,0,0,0-2.45,5.91c0,.06.13.06.14,0a10.26,10.26,0,0,1,8.92-8.5C232.33,435.05,232.33,434.92,232.24,434.91Z" style="fill:#263238"></path><path d="M212.92,425.12c-4.42,0-9.54,1.54-12.28,5.16-.11.14.09.29.23.23A60.57,60.57,0,0,1,213,425.67.28.28,0,0,0,212.92,425.12Z" style="fill:#263238"></path><path d="M216.34,426.44c-4.42,0-9.54,1.54-12.28,5.16-.11.14.09.29.22.22A61.46,61.46,0,0,1,216.42,427,.28.28,0,0,0,216.34,426.44Z" style="fill:#263238"></path><path d="M219.76,427.76c-4.42,0-9.55,1.54-12.28,5.16-.11.14.09.29.22.22a61.46,61.46,0,0,1,12.14-4.83A.28.28,0,0,0,219.76,427.76Z" style="fill:#263238"></path><path d="M223.18,429.08c-4.42,0-9.55,1.53-12.28,5.16-.11.14.09.29.22.22a61.46,61.46,0,0,1,12.14-4.83A.28.28,0,0,0,223.18,429.08Z" style="fill:#263238"></path><path d="M174,434c-5,0-4.92,7.74.05,7.71S179,434,174,434Z" style="fill:#263238"></path><path d="M217.66,413.3c-2.24-1.85-5.06,0-6.43,1.91a23.12,23.12,0,0,0-4,11.33c0,.09.06.13.14.12a.54.54,0,0,0,.79.36c3.14-2.19,6.78-4.14,9.15-7.23C218.72,418,219.79,415.05,217.66,413.3Zm-5.39,9.42c-1.52,1.12-3.09,2.15-4.56,3.32a66.37,66.37,0,0,1,2.47-6.56,25.19,25.19,0,0,1,1.6-3c1-1.47,5.29-5.18,5.74-.37C217.78,418.77,214.08,421.39,212.27,422.72Z" style="fill:#263238"></path><path d="M196.26,428.22c3.86.57,7.83-.54,11.61-1.14a.54.54,0,0,0,.33-.81.11.11,0,0,0,0-.18,23.26,23.26,0,0,0-10.72-5.41c-2.33-.44-5.63.2-6,3.09C191.21,426.5,194,427.88,196.26,428.22Zm-2.68-2.51c-3-3.79,2.69-4.11,4.39-3.72a24.31,24.31,0,0,1,3.23,1,69.26,69.26,0,0,1,6.33,3c-1.87.18-3.72.52-5.58.77C199.72,427.12,195.24,427.79,193.58,425.71Z" style="fill:#263238"></path><path d="M106.86,218.85s51.19,87.08,52.56,93.19c2.11,9.4,4.31,111,4.31,111l47.73-1s-.22-90.59-8.92-117.54c-6.26-19.41-45.9-83.79-45.9-83.79Z" style="fill:#FF725E"></path><path d="M208.38,413.33c-7.22-.06-5.15-.15-12.37-.12-3.53,0-26.75.1-30,.69a.07.07,0,0,0,0,.14c3.31.51,26.53,0,30.06-.07,7.22-.16,5.15-.19,12.36-.43A.11.11,0,1,0,208.38,413.33Z" style="fill:#263238"></path><path d="M169.48,390.45c-.22-6.72-.53-13.43-.86-20.15q-1-20.13-2.59-40.24c-.27-3.35-.55-6.69-.84-10-.28-3.16-.5-6.34-1.07-9.47-1.12-6.2-4.26-11.58-7.28-17q-9.45-16.95-19.47-33.56c-6.71-11.11-13.49-22.22-20.77-33-.91-1.34-1.82-2.69-2.74-4-.13-.17-.41,0-.29.18C120.37,234.12,127.31,245,134,256s13.23,22.22,19.58,33.49c1.55,2.75,3.1,5.52,4.62,8.29a52.67,52.67,0,0,1,4,8.62,41.92,41.92,0,0,1,1.76,9.49c.31,3.32.56,6.64.83,10q1.58,19.9,2.77,39.85c.79,13.3,1.33,26.61,2,39.91.09,1.68.17,3.36.23,5,0,.1.16.1.16,0C169.78,403.88,169.71,397.17,169.48,390.45Z" style="fill:#263238"></path><path d="M147.65,457.1c-2.43-.16-65.09-25.64-66.84-28.05a1,1,0,0,1-.09-.47c0-2.15,4.36-9.69,8-19.59.23-.64,1.85-3.57,4.1-7.53,6.19-10.88,14.53-30.77,14.53-30.77l41,16.34-17,30.6-3.06,7.1s19.21,19.91,20.83,22.75S150.07,457.24,147.65,457.1Z" style="fill: rgb(255, 196, 192);"></path><path d="M147.65,457.1c-2.43-.16-65.09-25.64-66.84-28.05a1,1,0,0,1-.09-.47c0-2.15,4.36-9.69,8-19.59.23-.64,1.85-3.57,4.1-7.53l38.44,16.17-3.06,7.1s19.21,19.91,20.83,22.75S150.07,457.24,147.65,457.1Z" style="fill:#fff"></path><path d="M147.65,457.09c-2.43-.14-65.09-25.63-66.84-28-.66-.91,2.15-9.47,7.91-20.05l39.49,15.75s19.21,19.89,20.83,22.74S150.07,457.24,147.65,457.09Z" style="fill:#c7c7c7"></path><path d="M147.76,454.29c-10.16-4.37-51.52-21.07-61.89-24.62-.09,0-.11,0,0,.06,10,4.56,51.47,20.92,61.85,24.73C147.91,454.54,148,454.38,147.76,454.29Z" style="fill:#263238"></path><path d="M146,443.7a8.84,8.84,0,0,0-7.14,0,8.58,8.58,0,0,0-4.49,4.55c0,.06.09.11.12,0a10.26,10.26,0,0,1,11.46-4.51A.07.07,0,0,0,146,443.7Z" style="fill:#263238"></path><path d="M131.78,427.36c-4.09-1.71-9.43-2.18-13.33.15-.15.09,0,.31.13.29a61.31,61.31,0,0,1,13.06.09A.28.28,0,0,0,131.78,427.36Z" style="fill:#263238"></path><path d="M134.45,429.87c-4.08-1.71-9.42-2.18-13.33.15-.15.09,0,.31.13.29a61.41,61.41,0,0,1,13.07.09A.28.28,0,0,0,134.45,429.87Z" style="fill:#263238"></path><path d="M137.12,432.38c-4.08-1.71-9.42-2.18-13.32.15-.15.09,0,.31.12.29a61.41,61.41,0,0,1,13.07.09A.28.28,0,0,0,137.12,432.38Z" style="fill:#263238"></path><path d="M139.79,434.88c-4.08-1.7-9.42-2.17-13.32.16-.15.09,0,.31.12.29a61.41,61.41,0,0,1,13.07.09A.28.28,0,0,0,139.79,434.88Z" style="fill:#263238"></path><path d="M92.4,421c-4.61-1.84-7.48,5.32-2.86,7.17S97,422.82,92.4,421Z" style="fill:#263238"></path><path d="M140.62,418.19c-1.39-2.56-4.68-1.93-6.68-.66a23.23,23.23,0,0,0-8,9,.12.12,0,0,0,.08.17.54.54,0,0,0,.6.63c3.74-.85,7.84-1.29,11.2-3.26C139.83,422.92,141.93,420.61,140.62,418.19Zm-8.55,6.7c-1.82.46-3.66.83-5.47,1.35a68.13,68.13,0,0,1,4.76-5.15,24.52,24.52,0,0,1,2.61-2.16c1.44-1,6.84-2.81,5.46,1.82C138.66,423.3,134.25,424.34,132.07,424.89Z" style="fill:#263238"></path><path d="M115.18,424c3.35,2,7.45,2.45,11.18,3.32.38.09.63-.3.6-.63.07,0,.13-.08.09-.16a23.39,23.39,0,0,0-7.9-9.05c-2-1.28-5.29-1.93-6.69.62S113.22,422.79,115.18,424Zm-1.54-3.33c-1.36-4.64,4-2.8,5.47-1.79a23.45,23.45,0,0,1,2.6,2.18c1.72,1.6,3.18,3.42,4.73,5.18-1.81-.54-3.65-.92-5.47-1.39C118.79,424.24,114.39,423.17,113.64,420.62Z" style="fill:#263238"></path><path d="M133.5,426,88.66,406.91S131.71,312.22,131.33,306c-.33-5.51-33.56-53.9-35.4-63-3-14.82,4.22-28.07,11.22-36.27l49.49,14s-3.94,8.56-11.18,14c0,0,31.11,51.94,31.91,69S133.5,426,133.5,426Z" style="fill:#FF725E"></path><path d="M135.1,415.67c-6.64-2.85-4.69-2.12-11.36-4.9-3.26-1.36-24.71-10.26-28-11-.07,0-.11.09-.05.13,2.85,1.75,24.45,10.28,27.74,11.57,6.72,2.65,4.82,1.82,11.57,4.39C135.14,415.92,135.22,415.73,135.1,415.67Z" style="fill:#263238"></path><path d="M153.06,232.69a88.31,88.31,0,0,0-13.7,6.46.15.15,0,0,0,.13.27c4.62-2,9.33-3.95,13.83-6.2A.3.3,0,1,0,153.06,232.69Z" style="fill:#263238"></path><path d="M147.25,231.47a20.76,20.76,0,0,0-.89,2.66,5.94,5.94,0,0,0-.34,2.19c0,.14.21.15.28.06a7.56,7.56,0,0,0,.93-2.14c.3-.83.62-1.65.89-2.48A.46.46,0,0,0,147.25,231.47Z" style="fill:#263238"></path><path d="M147.25,227c.2-.76.39-1.52.61-2.27s.49-1.56.65-2.36c0-.12.22-.07.19.06-.19.76-.28,1.56-.42,2.33s-.28,1.55-.43,2.32c-.29,1.44-.68,2.89-1.1,4.3a5.33,5.33,0,0,0,2.21-.68,4.17,4.17,0,0,0,1.34-2.12c.31-.86.59-1.73.91-2.59a17.49,17.49,0,0,0,1-2.89c0-.12.22-.07.19.06a32.78,32.78,0,0,1-1.76,6.11c-.34.77-.6,1.56-1.36,1.94a6.5,6.5,0,0,1-2.65.53c-.11,0-.26,0-.24-.15A44.83,44.83,0,0,1,147.25,227Z" style="fill:#263238"></path><path d="M110.38,229.11c.9-.15,2.21.16,6.09-.1a21.51,21.51,0,0,0,3.18-.52,7,7,0,0,0,3-1.2,15.61,15.61,0,0,0,3.38-4.65,24.29,24.29,0,0,0,2.36-5.73c0-.12.2-.07.18.05-.21,1.14-.32,2.27-.62,3.39a21,21,0,0,1-1.13,3.08,12.55,12.55,0,0,1-3.47,5.12c-1.75,1.31-4.19,1.56-6.31,1.71-1.23.08-6,0-6.68-.73C110.2,229.41,110.21,229.14,110.38,229.11Z" style="fill:#263238"></path><path d="M176,294.67c-1.29-3.85-2.93-7.59-4.55-11.31q-4.85-11.16-10.52-21.94-2.83-5.39-5.86-10.65c-2-3.51-8-13.91-8.58-14.76a.13.13,0,0,0-.22.14c2.09,3.42,4.61,8.78,6.61,12.26s3.94,7,5.81,10.55q5.63,10.71,10.49,21.81c1.61,3.68,3.18,7.38,4.6,11.13a40.33,40.33,0,0,1,2.91,11.71,32.55,32.55,0,0,1-2,12c-1.29,4-2.65,8-4,12.05-2.67,8.12-5.33,16.25-7.86,24.42-.32,1-.64,2.05-.95,3.09,0,.1.12.13.15,0,3-8.1,5.9-16.27,8.75-24.44,1.43-4.12,2.9-8.23,4.29-12.36a44.85,44.85,0,0,0,2.8-11.9A32.27,32.27,0,0,0,176,294.67Z" style="fill:#263238"></path><path d="M136,305a11.8,11.8,0,0,0-1.54-4.05c-3-5.75-6.42-11.3-9.93-16.78-7-11-14.57-21.71-20.44-33.38a52.37,52.37,0,0,1-3.8-9.13,24.06,24.06,0,0,1-.65-9.88c.89-6.38,3.93-12.24,7.17-17.73.82-1.39,1.67-2.76,2.52-4.13.12-.2,0-.37-.17-.17-3.49,5.26-7.11,10.77-9.06,16.82a28.18,28.18,0,0,0-1.47,8.82,26.43,26.43,0,0,0,1.85,9.21c2.26,6,5.55,11.62,8.79,17.1s6.88,11,10.44,16.48,7.16,11,10.47,16.65c.83,1.42,1.64,2.84,2.43,4.28a32,32,0,0,1,2.22,4.42,7.11,7.11,0,0,1-.36,5.28l-1.9,5q-7.62,19.95-15.61,39.76c-5.3,13.07-10.91,26-16.19,39.09-.66,1.65-1.32,3.3-2,4.94,0,.09.09.16.13.07,2.87-6.49,5.88-12.92,8.67-19.45s5.51-13,8.19-19.48c5.33-13,10.54-26,15.53-39.05q1.9-5,3.77-10A10.26,10.26,0,0,0,136,305Z" style="fill:#263238"></path><path d="M165.37,235.13l-12-2-1.14-.18-4-.66-.29-.05-.95-.16-23.38-3.83-2.11-.35-4.82-.79L116,227l-4.78-.78-9.74-1.6-.69-.11L97.24,224a52.34,52.34,0,0,1,9.91-17.21l49.49,14S160.2,226.5,165.37,235.13Z" style="fill:#263238"></path><path d="M179.46,113.93c7.92,8.77,4,19.58,6.95,26.09,1.8,4,8.7,8.82,9.62,13.26,1.52,7.3-4.72,9-3.89,13,1.19,5.62,8.44,6.13,8.61,15.09S190,198.46,166.73,198s-34.84-10.45-34.7-18,8.09-9.07,9.33-14.58c.79-3.52-3.61-6.61-3-13.19s7.26-7.9,8.89-13.35.43-19.36,9.49-25.21S175.56,109.61,179.46,113.93Z" style="fill:#263238"></path><path d="M178.41,114a19.18,19.18,0,0,1,5,7.57,41.94,41.94,0,0,1,2.12,9.46,24.49,24.49,0,0,0,1.09,5.63,14,14,0,0,0,2.59,4.21c2.2,2.56,4.95,4.65,6.85,7.46s3,6.08,1.78,9.23c-.69,1.72-2,3-3,4.57s-1.42,3.4-.24,4.87c1,1.26,2.6,2,3.79,3.07a14.53,14.53,0,0,1,2.94,3.68,11.35,11.35,0,0,1,1,9.11c-2.28,7-9.5,10.17-16,11.93-.91.25-1.82.49-2.74.72-.14,0-.23-.17-.08-.21,6.57-2,14.2-4.32,17.48-11a10.58,10.58,0,0,0,.11-9.36,13.39,13.39,0,0,0-2.84-3.88c-1.13-1.08-2.5-1.83-3.66-2.87a4.26,4.26,0,0,1-1.46-4,10.44,10.44,0,0,1,2.29-4.35,8.48,8.48,0,0,0,2.09-4.62,9.34,9.34,0,0,0-1.25-4.83c-1.58-3-4.21-5.15-6.51-7.55a15.64,15.64,0,0,1-4.6-8.45c-.27-1.7-.34-3.43-.54-5.14a46.74,46.74,0,0,0-.79-4.71,21.68,21.68,0,0,0-3.83-8.63,12.66,12.66,0,0,0-1.7-1.81C178.24,114.05,178.34,113.94,178.41,114Z" style="fill:#263238"></path><path d="M131.71,174.41a8.65,8.65,0,0,1,2-3.14c.93-.9,2-1.64,3-2.46A6.59,6.59,0,0,0,139,166a6.33,6.33,0,0,0-.48-4.27,30.53,30.53,0,0,1-1.55-4.26,14.53,14.53,0,0,1,3.09-12.65c.95-1.18,2-2.28,2.94-3.46a18.26,18.26,0,0,0,2.62-4.2c1.47-3.33,2.17-7,3.46-10.34a55,55,0,0,1,5.07-9.94c.05-.08.17,0,.12.09a48,48,0,0,0-4.48,9c-1.12,3-1.81,6.08-2.75,9.11a23.19,23.19,0,0,1-1.74,4.33,24.47,24.47,0,0,1-2.49,3.59c-1.87,2.33-3.8,4.62-4.61,7.57a14.14,14.14,0,0,0,.37,8.79c.92,2.43,2.28,5.17.88,7.71-1.18,2.15-3.51,3.23-5.19,4.92a9.17,9.17,0,0,0-2.49,7.06c.41,6.59,6.45,10.61,12.45,11.71a.15.15,0,0,1-.05.29c-5.24-.74-10.65-3.78-12.48-9A11.18,11.18,0,0,1,131.71,174.41Z" style="fill:#263238"></path><path d="M159.49,162.94c-2.08,12.64,4.35,42.83,7.95,48.81,3.88,6.46,22,23.85,35.64,27.34,5,1.28,7.21-21.24,2.89-24.53-6.26-4.77-17.9-13-20.39-16-3-3.75-15.52-31.94-16.92-35C164.64,154.79,160.47,157,159.49,162.94Z" style="fill: rgb(255, 196, 192);"></path><path d="M200,213c9.43-2.82,21-6.91,31.79-4.25a5.52,5.52,0,0,1,3.07,1.88c4.85,1.11,5.79,3.73,5.79,3.73,4.21,2.41,4.8,5.23,4.8,5.23s5.68,1.36,5.43,4.93c-.27,4-8.2,1.32-13.47,2.5-12.07,2.72-30.24,10.37-33.64,11.5Z" style="fill: rgb(255, 196, 192);"></path><path d="M222.82,221a79.09,79.09,0,0,1,10.7-1.78,79.93,79.93,0,0,1,11.88.47.1.1,0,0,0,0-.19,42,42,0,0,0-22.65,1.34C222.62,220.89,222.64,221,222.82,221Z" style="fill:#263238"></path><path d="M220.12,214c3.51-.52,9.69-1.39,20.57.54,0,0,.06-.05,0-.06a37.81,37.81,0,0,0-20.61-.65C219.88,213.83,219.89,214,220.12,214Z" style="fill:#263238"></path><path d="M218.74,210.14c6-.65,9.87-.31,16.15.53,0,0,.06-.06,0-.07-7-1.69-9.79-1.51-16.22-.67C218.47,210,218.51,210.16,218.74,210.14Z" style="fill:#263238"></path><path d="M223.11,231.22c-1.43,1-.92,1.73,2.15,1.94s15.42-1.57,15.67,2.78-17.13,5.79-22.28,5.89c-8.64.16-17.57-3.39-17.57-3.39C204.39,237.32,216.65,233.5,223.11,231.22Z" style="fill: rgb(255, 196, 192);"></path><path d="M157.51,165.52c-1.56,9.28,2.34,30.57,2.34,30.57l23.56-9.57s-12.19-21.75-16.64-27.82C162.78,153.25,158.84,157.53,157.51,165.52Z" style="fill:#FF725E"></path><path d="M160,191.31c3.22-1.45,16.63-6.91,19.6-7.9.21-.07.3.05.1.14a193.92,193.92,0,0,1-19.63,7.88C160,191.46,160,191.35,160,191.31Z" style="fill:#263238"></path><path d="M181.62,187.25l-21.77,8.84s-3.9-21.3-2.34-30.57c.79-4.72,2.48-8.13,4.55-9Z" style="fill:#263238"></path><path d="M167.45,204.14l-4.36,27.44a93.18,93.18,0,0,1-10-1.68,241.64,241.64,0,0,1-25.79-7.2c-8.39-2.82-18.2-6.51-29.36-11.34,0,0,29-45,47.74-56.65.42-.27.85-.52,1.27-.74a1.49,1.49,0,0,1,.24-.14c8.47-4.6,15.49-.09,19.23,5.93.93,1.5,9.36,24.78,8.35,32.32C173.85,198.72,167.45,204.14,167.45,204.14Z" style="fill:#FF725E"></path><path d="M153.38,152.85c0,1.08,3.29,8.88,8,9.78,1.54.29,3.5-8,3.5-8l.28-.58,4-8.15L160.59,137l-1.26-1.21s-.94,2.3-2.08,5.18c-.06.13-.11.27-.17.41l-.19.46c-.18.43-.36.87-.52,1.31s-.26.66-.39,1l-.38,1.06A56.12,56.12,0,0,0,153.38,152.85Z" style="fill: rgb(255, 196, 192);"></path><path d="M157.25,140.92A18.21,18.21,0,0,0,165.17,154l4-8.15L160.59,137l-1.26-1.21S158.39,138,157.25,140.92Z" style="fill:#263238"></path><path d="M183.1,134.73c-2.28,15.76-12,16.18-15.38,15.68-3.08-.45-13.53-2.37-12.89-18.28s8.69-19.83,15.8-19.18S185.38,119,183.1,134.73Z" style="fill: rgb(255, 196, 192);"></path><path d="M155.69,133.92c2.59.44,3.67-5,3.67-5s5.29.49,7.72-7a11.83,11.83,0,0,1-2.91,6.08s9.41-.16,14-7.61c0,0-1.92,3.84-3.52,5.12a11,11,0,0,0,6.2-3.75s1.23,4.65,2.37,6c0,0,2.33-7.89-.72-12.27-6.44-9.23-18.44-2.35-18.44-2.35s-6.49.56-9.1,5.23C151,125.67,155.69,133.92,155.69,133.92Z" style="fill:#263238"></path><path d="M157.16,133.7s-2.25-5.63-4.73-4.94-1.58,8.3.78,9.87a2.69,2.69,0,0,0,3.84-.59Z" style="fill: rgb(255, 196, 192);"></path><path d="M152.74,130.93s-.06,0,0,.07c1.63,1.16,2.19,3.06,2.45,4.95a1.48,1.48,0,0,0-2.07-.9c-.06,0,0,.1,0,.1a1.68,1.68,0,0,1,1.65,1,8.43,8.43,0,0,1,.51,1.64c.05.18.36.16.34,0v0C156.2,135.39,155.16,131.75,152.74,130.93Z" style="fill:#263238"></path><path d="M182,131.13c-.37-.12-.68-.28-1-.43a1.76,1.76,0,0,1-1-.63.57.57,0,0,1,.13-.68,1.41,1.41,0,0,1,1.43-.08,2.08,2.08,0,0,1,1.16,1A.62.62,0,0,1,182,131.13Z" style="fill:#263238"></path><path d="M171.61,129.55c.38,0,.73,0,1.11,0a1.84,1.84,0,0,0,1.13-.25.58.58,0,0,0,.12-.69,1.4,1.4,0,0,0-1.32-.58,2.12,2.12,0,0,0-1.42.49A.62.62,0,0,0,171.61,129.55Z" style="fill:#263238"></path><path d="M173.3,133.9s-.09,0-.1.09c-.13,1.08-.47,2.31-1.51,2.51,0,0,0,.06,0,.06C172.91,136.58,173.35,135,173.3,133.9Z" style="fill:#263238"></path><path d="M172.51,132.62c-1.72-.41-2.41,3.06-.81,3.44S174,133,172.51,132.62Z" style="fill:#263238"></path><path d="M171.8,132.67c-.35.13-.71.42-1.09.38s-.67-.46-.88-.87c0,0-.06,0-.07,0a1.3,1.3,0,0,0,.67,1.64c.64.22,1.22-.28,1.52-.92C172,132.82,171.93,132.61,171.8,132.67Z" style="fill:#263238"></path><path d="M179.14,134.69s.07.07.06.12c-.25,1.06-.37,2.33.53,2.88,0,0,0,.07,0,.06C178.56,137.34,178.73,135.66,179.14,134.69Z" style="fill:#263238"></path><path d="M180.33,133.77c1.75.23,1.17,3.72-.45,3.51S178.86,133.58,180.33,133.77Z" style="fill:#263238"></path><path d="M181,134.12c.24.23.46.61.79.69s.72-.24,1-.56c0,0,0,0,0,0-.09.67-.43,1.33-1.09,1.35s-.94-.62-1-1.31C180.8,134.2,180.92,134,181,134.12Z" style="fill:#263238"></path><path d="M171.19,142.2c.2.31.37.72.75.85a2.9,2.9,0,0,0,1.21,0,0,0,0,0,1,0,.07,1.47,1.47,0,0,1-1.49.24,1.16,1.16,0,0,1-.61-1.15C171.08,142.16,171.17,142.16,171.19,142.2Z" style="fill:#263238"></path><path d="M176.43,139.14s-.08,1.66-.22,2.42c0,.07-.21.07-.47,0h0a3.67,3.67,0,0,1-3.25-2,.08.08,0,0,1,.13-.09,5.57,5.57,0,0,0,3.12,1.56c.1-.2,0-2.83.16-2.82a6.85,6.85,0,0,1,1.66.71c.26-3.43,0-6.88.28-10.3a.1.1,0,0,1,.2,0,55.05,55.05,0,0,1,.17,11.11C178.16,140.19,176.71,139.33,176.43,139.14Z" style="fill:#263238"></path><path d="M175.69,141.29a4.46,4.46,0,0,1-2,1.11,2,2,0,0,1-1.22-.11c-.85-.37-.75-1.18-.48-1.84a4.88,4.88,0,0,1,.56-1A5.76,5.76,0,0,0,175.69,141.29Z" style="fill:#263238"></path><path d="M173.7,142.4a2,2,0,0,1-1.22-.11c-.85-.37-.75-1.18-.48-1.84A2.08,2.08,0,0,1,173.7,142.4Z" style="fill:#ff99ba"></path><path d="M144.05,168.8c12.51,25.16,33.74,42.43,37.82,44.14,14.62,6.14,41.37,8.72,49.62,8.19,3.57-.23,6.31-27.82,2.57-28.61-4.48-1-36-1.21-38.11-2.26a283.84,283.84,0,0,1-40.16-25.89C140.62,152.43,140.44,161.53,144.05,168.8Z" style="fill: rgb(255, 196, 192);"></path><path d="M221.77,195.22s8.72-6.49,14.61-10.47c3.29-2.22,9.27-5.52,12.44-6,4.73-.79,25-1.05,25.18,3.87.15,4.45-17.3,2.46-17.3,2.46s17.79.45,17,5.84-20.23.53-20.23.53,18.27.87,16.57,6.3c-1.29,4.1-19.13.68-19.13.68s15.69.86,14.55,5.14c-1.26,4.73-17.93,2.6-17.93,2.6-4.74,10.39-10.93,13.37-15.81,15C230.53,221.47,221.77,195.22,221.77,195.22Z" style="fill: rgb(255, 196, 192);"></path><path d="M250.55,184.49c2.1,0,4.21-.06,6.3.1s4.17.4,6.23.76A35.82,35.82,0,0,1,271,187.5c-4.64-1.47-12.1-2.17-14.19-2.34s-4.15-.43-6.23-.59C250.49,184.56,250.5,184.49,250.55,184.49Z" style="fill:#263238"></path><path d="M249.83,192c2.67.09,5.33.08,8,.28s5.16.63,7.8,1c.2,0,.12.13-.09.11-2.64-.28-5.12-.34-7.77-.59s-5.29-.6-7.94-.75A0,0,0,0,1,249.83,192Z" style="fill:#263238"></path><path d="M248,198.36a59.69,59.69,0,0,1,12.2,1.36c.2,0,.08.16-.13.13-4-.53-7.21-1-12.07-1.35C248,198.5,248,198.36,248,198.36Z" style="fill:#263238"></path><path d="M241.86,214.58a33.64,33.64,0,0,1-5.68,4.25,14.88,14.88,0,0,1-7.2,1.68,114.93,114.93,0,0,1-16-.68,143.35,143.35,0,0,1-15.5-2.9c-2.6-.61-5.19-1.27-7.78-1.93a41.19,41.19,0,0,1-7.29-2.31c-2.51-1.16-11.28-8.21-13.37-10.17-.07-.07-.18,0-.11.12,1.86,1.85,3.83,3.68,5.79,5.42a42.66,42.66,0,0,0,5.82,4.56,26.26,26.26,0,0,0,7,2.76q4,1.08,7.93,2.07a141.77,141.77,0,0,0,16.06,3.23,114.75,114.75,0,0,0,16.37.74,17.06,17.06,0,0,0,8-1.6,26.77,26.77,0,0,0,6.14-5C242.22,214.65,242,214.45,241.86,214.58Z" style="fill:#263238"></path><path d="M154,161.56c-12.07-9.24-15.71-3.29-10,9.05,5.32,11.54,14,24.55,14,24.55l17.95-16.82Z" style="fill:#c7c7c7"></path><path d="M154,161.56c-12.07-9.24-15.71-3.29-10,9.05,5.32,11.54,14,24.55,14,24.55l17.95-16.82Z" style="fill:#FF725E"></path><path d="M157.87,164.25c1.61,1.2,3.25,2.35,4.88,3.51-.53-.68-1-1.37-1.5-2.1,0,0,0-.06.05,0,.42.54.87,1.05,1.28,1.6l.61.77.13.17c1.28.9,2.55,1.81,3.79,2.75,1.49,1.12,2.95,2.28,4.41,3.43s3.06,2.67,4.61,3.8c.14.1-1.58,1.5-1.73,1.66s-.34,0-.16-.1,1.42-1.56,1.44-1.58c-1.47-1.17-3.06-2.17-4.57-3.29s-3-2.22-4.46-3.37c-3-2.32-5.85-4.82-8.83-7.16C157.78,164.28,157.83,164.22,157.87,164.25Z" style="fill:#263238"></path><path d="M147.1,179c.52.52,1.06,1,1.54,1.59l.6.69c-1.2-2.14-2.38-4.29-3.56-6.43,0,0,0-.06,0,0,2.13,3.41,4.26,6.82,6.32,10.27a112.15,112.15,0,0,1,5.75,10,13.17,13.17,0,0,1,1.77-1.29,9.48,9.48,0,0,1-1.85,1.73,118,118,0,0,1-6.24-10.36c-.55-1-1.09-1.92-1.63-2.88-.43-.55-.91-1.06-1.38-1.57s-.94-1.14-1.41-1.71C147,179,147.07,178.93,147.1,179Z" style="fill:#263238"></path><path d="M157.16,191.52c2.42-2.57,12.71-12.74,15.09-14.79.16-.15.29-.08.14.09a195.61,195.61,0,0,1-15.12,14.79C157.2,191.67,157.1,191.59,157.16,191.52Z" style="fill:#263238"></path></g><g id="freepik--Plant--inject-23"><path d="M413.8,364.63c7.17-14.76,19.73-22.33,33.89-18.15s16.35,23.93,5.78,28.91-21.13-9.57-26.71-12.56S413.8,364.63,413.8,364.63Z" style="fill:#FF725E"></path><path d="M406.85,403.9c0-1.78.11-3.56.17-5.34.12-3.55.24-7.1.38-10.65.24-6.49.94-12.87,3.63-18.86a29.21,29.21,0,0,1,11.38-13.12,24.38,24.38,0,0,1,6-2.58,14,14,0,0,1,7-3.84,28.72,28.72,0,0,1,10-.25c.12,0,.11.21,0,.19a24.16,24.16,0,0,0-9.42.67,19.86,19.86,0,0,0-3.79,1.48,19,19,0,0,0-2.2,1.39,20.36,20.36,0,0,1,8.65.08,20,20,0,0,1,3,1,9.34,9.34,0,0,1,2.35-.2,14.39,14.39,0,0,1,3.07.44,23.37,23.37,0,0,1,5.82,2.54c.11.06,0,.22-.1.16a21.65,21.65,0,0,0-5.68-2.14,19,19,0,0,0-2.92-.43,14.78,14.78,0,0,0-1.63,0,18.8,18.8,0,0,1,9.16,9.12c.05.11-.12.2-.17.09a17.18,17.18,0,0,0-11.66-9.35c-.31-.08-.63-.12-.95-.19a12,12,0,0,1,.15,1.43c.1.72.22,1.43.36,2.14a35.74,35.74,0,0,0,1.16,4.32,33.77,33.77,0,0,0,1.71,4.19,20.27,20.27,0,0,0,2.39,4c.09.1-.07.22-.15.11-.85-1.33-1.84-2.56-2.61-4a29.54,29.54,0,0,1-1.92-4.11,27.28,27.28,0,0,1-1.26-4.43c-.16-.79-.28-1.59-.38-2.4a5.49,5.49,0,0,1-.08-1.46,19.25,19.25,0,0,0-5-.1c.63,3.52,1.3,7.18,3.27,10.24.07.1-.1.2-.16.09a40.85,40.85,0,0,1-2.43-5,19.31,19.31,0,0,1-1.22-5.24,23.4,23.4,0,0,0-8.31,2.78,27.47,27.47,0,0,0-11.06,12.11,45.52,45.52,0,0,0-4.1,17.35c-.47,7.54-.57,15.12-1.32,22.64-.05.49-.83.66-.93.1A27.37,27.37,0,0,1,406.85,403.9Z" style="fill:#263238"></path><path d="M423.44,354.75a8.35,8.35,0,0,1,1.63-1.51c.59-.48,1.19-.95,1.82-1.38A13.66,13.66,0,0,1,431,350a.09.09,0,0,1,0,.18,10.81,10.81,0,0,0-4,2c-.6.44-1.18.91-1.74,1.4a10.85,10.85,0,0,1-1.64,1.4C423.5,355,423.36,354.86,423.44,354.75Z" style="fill:#263238"></path><path d="M446.34,360.1a42.15,42.15,0,0,1,3.3,4.35,26,26,0,0,1,2.44,4.86c0,.05-.06.08-.08,0a58,58,0,0,0-5.79-9.11C446.13,360.13,446.27,360,446.34,360.1Z" style="fill:#263238"></path><path d="M430.9,358.64a10.84,10.84,0,0,0,.81,2.67,17.89,17.89,0,0,0,1.37,2.36.05.05,0,0,1-.08.06,9.58,9.58,0,0,1-2.28-5.05C430.7,358.56,430.88,358.52,430.9,358.64Z" style="fill:#263238"></path><path d="M407.85,365s-10.16-12.77-29.78-8.25c-18.64,4.31-27.24,38.49-8.4,42.58s15.51-27.54,22.38-32.91C397.09,362.47,404.33,363.32,407.85,365Z" style="fill:#FF725E"></path><path d="M362.92,375.41a38,38,0,0,1,4.05-3.09,17.48,17.48,0,0,1,4.3-2.15,25.44,25.44,0,0,1,2.56-3.29,25.06,25.06,0,0,1,5.93-4.72c-.2,0-.39,0-.58,0a29.5,29.5,0,0,0-3.12,0,17.21,17.21,0,0,0-6.06,1.51c-.11,0-.19-.13-.08-.17a27.41,27.41,0,0,1,6.05-1.83,17.4,17.4,0,0,1,3.06-.26c.55,0,1.1,0,1.65.1l.31,0a26.85,26.85,0,0,1,5.66-2.08l-.55-.14a23.86,23.86,0,0,0-2.91-.48,22.55,22.55,0,0,0-5.86.09c-.12,0-.16-.17,0-.19a37.91,37.91,0,0,1,5.93-.24,26,26,0,0,1,4.94.64,28.21,28.21,0,0,1,3.58-.41c6.83-.28,14.29,2.27,18.5,7.89s5,13.14,5.78,19.92a151,151,0,0,1,.75,28.51c0,.56-.83.46-.85-.07-.26-8.06-.54-16.12-1.31-24.16-.36-3.72-.76-7.45-1.37-11.14a33,33,0,0,0-2.71-9.17,16.79,16.79,0,0,0-6.62-7.12,22.33,22.33,0,0,0-9.38-2.88,25.31,25.31,0,0,0-8.8.82,5.64,5.64,0,0,1,0,1.74,9.13,9.13,0,0,1-.43,2.14,10.68,10.68,0,0,1-.82,1.9c-.36.68-.82,1.28-1.22,1.92-.06.11-.23,0-.15-.1a9.12,9.12,0,0,0,1.52-3.87,14.94,14.94,0,0,0,.23-2c0-.51,0-1,0-1.52a26.06,26.06,0,0,0-8.57,4.52c-.47.39-.93.79-1.38,1.21a9.17,9.17,0,0,1,1.66,2,19.67,19.67,0,0,1,1.74,3.1,26.42,26.42,0,0,1,1.82,6.83.1.1,0,0,1-.19,0,19.53,19.53,0,0,0-2.23-6.46,25.62,25.62,0,0,0-1.74-2.88c-.33-.47-.67-.94-1-1.39-.19-.24-.4-.49-.58-.75a27,27,0,0,0-5.56,7.83l0,0a13.3,13.3,0,0,1,2.3,3.3,30.51,30.51,0,0,1,1.84,3.93,64.9,64.9,0,0,1,2.34,8c0,.11-.16.15-.19,0A33.59,33.59,0,0,0,372.4,383c-.58-1.23-1.2-2.44-1.85-3.63a32.39,32.39,0,0,1-1.85-3.43,25.36,25.36,0,0,0-2.24,9.09c0,.12-.19.1-.18,0a31.67,31.67,0,0,1,4.4-13.94c-1.2.51-2.4,1-3.56,1.62a19.67,19.67,0,0,0-4.07,2.87C363,375.64,362.83,375.49,362.92,375.41Z" style="fill:#263238"></path><path d="M377.31,376.14c.59,1.93,1.33,3.81,1.86,5.77a22.58,22.58,0,0,1,.87,5.77c0,.05-.09.05-.1,0a55.57,55.57,0,0,0-2.81-11.49A.09.09,0,1,1,377.31,376.14Z" style="fill:#263238"></path><path d="M364.88,371.33a11.29,11.29,0,0,1,2.6-1.85,18.9,18.9,0,0,1,3-1.07c.11,0,.15.16,0,.19a11.74,11.74,0,0,0-2.89,1.19,21.47,21.47,0,0,0-2.67,1.64A.06.06,0,0,1,364.88,371.33Z" style="fill:#263238"></path><path d="M398.19,347.93s-1.87-22.94-18.93-30.38c-14.25-6.21-22.4,9.79-12.33,19.59C375.07,345.07,388.14,341.49,398.19,347.93Z" style="fill:#FF725E"></path><path d="M370.08,322a72.08,72.08,0,0,1,7.59,3.59,57.81,57.81,0,0,1,5.89,3.91c-.28-.58-.53-1.18-.81-1.75-.45-.89-.93-1.75-1.45-2.59a24.41,24.41,0,0,0-3.76-4.76c-.09-.08,0-.22.13-.13a37.68,37.68,0,0,1,4,4.6,30.44,30.44,0,0,1,1.62,2.6,10.68,10.68,0,0,1,1.15,2.64l.18.14a55.84,55.84,0,0,1,8.15,8c0-.22-.09-.45-.15-.66-.32-1.12-.67-2.22-1-3.33a28.41,28.41,0,0,0-3.09-6.69c-.06-.1.1-.2.17-.09A53.49,53.49,0,0,1,392.2,334a25.31,25.31,0,0,1,1.18,3.4,14.08,14.08,0,0,1,.55,2.3c.74.94,1.48,1.89,2.16,2.87,7.33,10.43,11,23,11.89,35.65a112.33,112.33,0,0,1,.19,11.31,71.76,71.76,0,0,1-1,11.34c-.05.24-.42.17-.42-.06.09-3.32.43-6.62.5-9.94s-.06-6.65-.32-10a93.22,93.22,0,0,0-3.72-19.52A69.73,69.73,0,0,0,394.53,343c-.72-.14-1.43-.34-2.14-.52l-2.55-.67a26.13,26.13,0,0,1-4.76-1.75c-.1-.05,0-.22.1-.16a15.57,15.57,0,0,0,4.83,1.67c1.33.26,2.72.44,4.06.74q-1.86-2.7-4-5.21a29.67,29.67,0,0,1-9.71-.72,40.71,40.71,0,0,1-5-1.55c-1.71-.66-3.33-1.51-5-2.21-.12-.05,0-.24.08-.17a28.35,28.35,0,0,0,9.84,3.22,60.41,60.41,0,0,0,9.2.76c-1.21-1.39-2.46-2.74-3.8-4-4.48-4.26-9.8-8.19-15.7-10.23C369.91,322.13,370,322,370.08,322Z" style="fill:#263238"></path><path d="M384,322.06a26.64,26.64,0,0,1,2.09,3.06,16.89,16.89,0,0,1,1.5,3.56s-.05.06-.07,0c-.57-1.13-1.05-2.3-1.62-3.42a16.77,16.77,0,0,0-2-3.1C383.75,322.1,383.89,322,384,322.06Z" style="fill:#263238"></path><path d="M368.1,329.7a17.86,17.86,0,0,0,3.5,1.46,31.72,31.72,0,0,0,3.56,1c.06,0,0,.1,0,.1a17.12,17.12,0,0,1-3.69-.81,29.71,29.71,0,0,1-3.46-1.55C367.9,329.81,368,329.64,368.1,329.7Z" style="fill:#263238"></path><path d="M411.45,343.8c.11,1,2.58-8.33,17-16.61,13.1-7.51,28.73-27.06,15.89-39.41C434,277.81,406.67,299.54,411.45,343.8Z" style="fill:#FF725E"></path><path d="M401.52,397.25a258.48,258.48,0,0,1,2.29-29,130.39,130.39,0,0,1,6.1-25.95c1.07-3,2.3-6,3.63-9a20.61,20.61,0,0,1,.06-3.43c.07-1.47.2-2.94.34-4.4s.28-2.93.45-4.39.49-2.92.55-4.38c0-.13.21-.1.18,0a31.51,31.51,0,0,0-.52,4.65c-.11,1.41-.19,2.83-.23,4.25s0,2.84,0,4.26c0,.51,0,1.05.05,1.6q2-4.31,4.38-8.44c-1-6,.29-12.23,1.52-18.08,0-.11.2-.06.17.06a51.41,51.41,0,0,0-.95,9.27c-.05,2.45.06,4.91.07,7.36.35-.59.69-1.18,1.05-1.76q2.81-4.57,6-8.95a14.15,14.15,0,0,1,.14-4.26,32.36,32.36,0,0,1,1.05-4.66c.46-1.53,1-3,1.59-4.5s1.46-2.95,2.06-4.47c.05-.13.24,0,.17.07a21.61,21.61,0,0,0-1.8,4.53,38.49,38.49,0,0,0-1.18,4.49c-.31,1.51-.56,3-.77,4.57-.14,1-.23,2.07-.41,3.09a109.92,109.92,0,0,1,10.1-11.75c.09-.09.21.05.13.13A133.12,133.12,0,0,0,423,318.17l-.47.81c.8-.5,1.71-.9,2.46-1.31,1.39-.78,2.8-1.55,4.2-2.31s2.73-1.49,4.09-2.24c.7-.39,1.39-.79,2.1-1.15a16.56,16.56,0,0,0,2.44-1.36c.11-.08.23.09.11.15-1.38.76-2.61,1.9-3.95,2.75s-2.72,1.69-4.12,2.47c-2.56,1.43-5.35,2.46-7.87,3.94-1.76,3.07-3.37,6.21-4.86,9.41q2.31-1.47,4.69-2.8c1-.57,2-1.14,3.08-1.68a15.66,15.66,0,0,0,2.91-1.76c.09-.08.21.05.13.14a27.25,27.25,0,0,1-5.55,3.85c-1.85,1.09-3.72,2.13-5.65,3.08-1.54,3.37-2.94,6.82-4.17,10.32-6.07,17.19-8.3,35.44-9.37,53.56-.32,5.41-.48,10.8-.55,16.22s.22,10.8.21,16.2c0,.16-.26.2-.29,0-.65-4.79-.76-9.66-1-14.49S401.42,402.16,401.52,397.25Z" style="fill:#263238"></path><path d="M427.73,319.42a69.35,69.35,0,0,0,7.66-4,82.07,82.07,0,0,0,7.28-4.62s.09,0,.05.07a60.67,60.67,0,0,1-7,4.88,69.25,69.25,0,0,1-7.91,3.8C427.71,319.63,427.62,319.47,427.73,319.42Z" style="fill:#263238"></path><path d="M423.55,300c.22-.84.48-1.66.76-2.48a.07.07,0,0,1,0-.1c.18-.46.37-.92.56-1.38a1,1,0,0,1,.07-.17l.1-.27s.06,0,.05,0-.09.32-.14.48a1.29,1.29,0,0,1-.08.26,69.58,69.58,0,0,0-2.14,9.8c0,.1-.17.1-.16,0A32.89,32.89,0,0,1,423.55,300Z" style="fill:#263238"></path><polygon points="386.29 400.73 387.31 412.93 390.46 450.14 424.21 450.14 427.37 412.93 428.39 400.73 386.29 400.73" style="fill:#455a64"></polygon><polygon points="386.29 400.73 387.31 412.93 427.37 412.93 428.39 400.73 386.29 400.73" style="fill:#263238"></polygon><rect x="382.97" y="395.84" width="48.73" height="11.7" transform="translate(814.68 803.38) rotate(180)" style="fill:#455a64"></rect></g></svg>